{
    "asset": {
        "generator": "FBX2glTF v0.9.7",
        "version": "2.0"
    },
    "scene": 0,
    "buffers": [
        {
            "byteLength": 58340,
            "uri": "buffer.bin"
        }
    ],
    "bufferViews": [
        {
            "buffer": 0,
            "byteLength": 20,
            "byteOffset": 0
        },
        {
            "buffer": 0,
            "byteLength": 80,
            "byteOffset": 20
        },
        {
            "buffer": 0,
            "byteLength": 80,
            "byteOffset": 100
        },
        {
            "buffer": 0,
            "byteLength": 8,
            "byteOffset": 180
        },
        {
            "buffer": 0,
            "byteLength": 32,
            "byteOffset": 188
        },
        {
            "buffer": 0,
            "byteLength": 7584,
            "byteOffset": 220,
            "target": 34963
        },
        {
            "buffer": 0,
            "byteLength": 10788,
            "byteOffset": 7804,
            "target": 34962
        },
        {
            "buffer": 0,
            "byteLength": 10788,
            "byteOffset": 18592,
            "target": 34962
        },
        {
            "buffer": 0,
            "byteLength": 7192,
            "byteOffset": 29380,
            "target": 34962
        },
        {
            "buffer": 0,
            "byteLength": 7192,
            "byteOffset": 36572,
            "target": 34962
        },
        {
            "buffer": 0,
            "byteLength": 14384,
            "byteOffset": 43764,
            "target": 34962
        },
        {
            "buffer": 0,
            "byteLength": 192,
            "byteOffset": 58148
        }
    ],
    "scenes": [
        {
            "name": "Root Scene",
            "nodes": [
                0
            ]
        }
    ],
    "accessors": [
        {
            "componentType": 5126,
            "type": "SCALAR",
            "count": 5,
            "bufferView": 0,
            "byteOffset": 0,
            "min": [
                0.0
            ],
            "max": [
                0.16666667163372
            ]
        },
        {
            "componentType": 5126,
            "type": "VEC4",
            "count": 5,
            "bufferView": 1,
            "byteOffset": 0
        },
        {
            "componentType": 5126,
            "type": "VEC4",
            "count": 5,
            "bufferView": 2,
            "byteOffset": 0
        },
        {
            "componentType": 5126,
            "type": "SCALAR",
            "count": 2,
            "bufferView": 3,
            "byteOffset": 0,
            "min": [
                0.0
            ],
            "max": [
                0.0416666679084301
            ]
        },
        {
            "componentType": 5126,
            "type": "VEC4",
            "count": 2,
            "bufferView": 4,
            "byteOffset": 0
        },
        {
            "componentType": 5123,
            "type": "SCALAR",
            "count": 3792,
            "bufferView": 5,
            "byteOffset": 0
        },
        {
            "componentType": 5126,
            "type": "VEC3",
            "count": 899,
            "bufferView": 6,
            "byteOffset": 0,
            "min": [
                -0.0107461009174585,
                -0.00814395304769278,
                -0.0098060192540288
            ],
            "max": [
                0.0107408072799444,
                0.0335036478936672,
                0.0121015375480056
            ]
        },
        {
            "componentType": 5126,
            "type": "VEC3",
            "count": 899,
            "bufferView": 7,
            "byteOffset": 0
        },
        {
            "componentType": 5126,
            "type": "VEC2",
            "count": 899,
            "bufferView": 8,
            "byteOffset": 0
        },
        {
            "componentType": 5123,
            "type": "VEC4",
            "count": 899,
            "bufferView": 9,
            "byteOffset": 0
        },
        {
            "componentType": 5126,
            "type": "VEC4",
            "count": 899,
            "bufferView": 10,
            "byteOffset": 0
        },
        {
            "componentType": 5126,
            "type": "MAT4",
            "count": 3,
            "bufferView": 11,
            "byteOffset": 0
        }
    ],
    "images": [
        {
            "name": "colorTexture.png",
            "uri": "colorTexture.png"
        }
    ],
    "samplers": [
        {}
    ],
    "textures": [
        {
            "name": "base_color_texture",
            "sampler": 0,
            "source": 0
        }
    ],
    "materials": [
        {
            "name": "材质",
            "alphaMode": "OPAQUE",
            "extras": {
                "fromFBX": {
                    "shadingModel": "Phong",
                    "isTruePBR": false
                }
            },
            "pbrMetallicRoughness": {
                "baseColorTexture": {
                    "index": 0,
                    "texCoord": 0
                },
                "baseColorFactor": [
                    1.0,
                    1.0,
                    1.0,
                    1.0
                ],
                "metallicFactor": 0.400000005960464,
                "roughnessFactor": 0.161126837134361
            }
        }
    ],
    "meshes": [
        {
            "name": "立方体.002",
            "primitives": [
                {
                    "material": 0,
                    "mode": 4,
                    "attributes": {
                        "JOINTS_0": 9,
                        "NORMAL": 7,
                        "POSITION": 6,
                        "TEXCOORD_0": 8,
                        "WEIGHTS_0": 10
                    },
                    "indices": 5
                }
            ]
        }
    ],
    "skins": [
        {
            "joints": [
                3,
                4,
                5
            ],
            "inverseBindMatrices": 11,
            "skeleton": 3
        }
    ],
    "animations": [
        {
            "name": "骨架|AttackAnim",
            "channels": [
                {
                    "sampler": 0,
                    "target": {
                        "node": 3,
                        "path": "rotation"
                    }
                },
                {
                    "sampler": 1,
                    "target": {
                        "node": 5,
                        "path": "rotation"
                    }
                }
            ],
            "samplers": [
                {
                    "input": 0,
                    "interpolation": "LINEAR",
                    "output": 1
                },
                {
                    "input": 0,
                    "interpolation": "LINEAR",
                    "output": 2
                }
            ]
        },
        {
            "name": "骨架|destroyAnim",
            "channels": [
                {
                    "sampler": 0,
                    "target": {
                        "node": 3,
                        "path": "rotation"
                    }
                }
            ],
            "samplers": [
                {
                    "input": 3,
                    "interpolation": "LINEAR",
                    "output": 4
                }
            ]
        }
    ],
    "nodes": [
        {
            "name": "RootNode",
            "translation": [
                0.0,
                0.0,
                0.0
            ],
            "rotation": [
                0.0,
                0.0,
                0.0,
                1.0
            ],
            "scale": [
                1.0,
                1.0,
                1.0
            ],
            "children": [
                1,
                2
            ]
        },
        {
            "name": "立方体.002",
            "translation": [
                0.0,
                0.0,
                0.0
            ],
            "rotation": [
                -0.707106828689575,
                0.0,
                0.0,
                0.707106709480286
            ],
            "scale": [
                54.0183296203613,
                54.0183296203613,
                54.0183296203613
            ],
            "mesh": 0,
            "skin": 0
        },
        {
            "name": "骨架",
            "translation": [
                0.0,
                -1.16416323184967,
                0.0
            ],
            "rotation": [
                -0.707106828689575,
                0.0,
                0.0,
                0.707106709480286
            ],
            "scale": [
                100.0,
                100.0,
                100.0
            ],
            "children": [
                3
            ]
        },
        {
            "name": "Bone",
            "translation": [
                0.0,
                0.0,
                0.0
            ],
            "rotation": [
                0.707106828689575,
                0.0,
                0.0,
                0.707106709480286
            ],
            "scale": [
                1.0,
                1.0,
                1.0
            ],
            "children": [
                4
            ]
        },
        {
            "name": "Bone.001",
            "translation": [
                0.0,
                0.0116991000249982,
                0.0
            ],
            "rotation": [
                -0.707106828689575,
                0.0,
                0.0,
                0.707106709480286
            ],
            "scale": [
                1.0,
                1.0,
                1.0
            ],
            "children": [
                5
            ]
        },
        {
            "name": "Bone.002",
            "translation": [
                0.0,
                0.0106474244967103,
                8.67361718601358e-21
            ],
            "rotation": [
                0.0,
                0.0,
                0.0,
                1.0
            ],
            "scale": [
                1.0,
                1.0,
                1.0
            ],
            "children": [
                6
            ]
        },
        {
            "name": "Bone.002_end",
            "translation": [
                0.0,
                0.00544408429414034,
                0.0
            ],
            "rotation": [
                0.0,
                0.0,
                0.0,
                1.0
            ],
            "scale": [
                1.0,
                1.0,
                1.0
            ]
        }
    ]
}