{
    "asset": {
        "generator": "FBX2glTF v0.9.7",
        "version": "2.0"
    },
    "scene": 0,
    "buffers": [
        {
            "byteLength": 29896,
            "uri": "buffer.bin"
        }
    ],
    "bufferViews": [
        {
            "buffer": 0,
            "byteLength": 4584,
            "byteOffset": 0,
            "target": 34963
        },
        {
            "buffer": 0,
            "byteLength": 9492,
            "byteOffset": 4584,
            "target": 34962
        },
        {
            "buffer": 0,
            "byteLength": 9492,
            "byteOffset": 14076,
            "target": 34962
        },
        {
            "buffer": 0,
            "byteLength": 6328,
            "byteOffset": 23568,
            "target": 34962
        }
    ],
    "scenes": [
        {
            "name": "Root Scene",
            "nodes": [
                0
            ]
        }
    ],
    "accessors": [
        {
            "componentType": 5123,
            "type": "SCALAR",
            "count": 2292,
            "bufferView": 0,
            "byteOffset": 0
        },
        {
            "componentType": 5126,
            "type": "VEC3",
            "count": 791,
            "bufferView": 1,
            "byteOffset": 0,
            "min": [
                -0.0732443481683731,
                -0.0850753113627434,
                -0.113860778510571
            ],
            "max": [
                0.0733448788523674,
                0.0850563198328018,
                0.103012174367905
            ]
        },
        {
            "componentType": 5126,
            "type": "VEC3",
            "count": 791,
            "bufferView": 2,
            "byteOffset": 0
        },
        {
            "componentType": 5126,
            "type": "VEC2",
            "count": 791,
            "bufferView": 3,
            "byteOffset": 0
        }
    ],
    "images": [
        {
            "name": "colorTexture.png",
            "uri": "colorTexture.png"
        }
    ],
    "samplers": [
        {}
    ],
    "textures": [
        {
            "name": "base_color_texture",
            "sampler": 0,
            "source": 0
        }
    ],
    "materials": [
        {
            "name": "材质.002",
            "alphaMode": "OPAQUE",
            "extras": {
                "fromFBX": {
                    "shadingModel": "Phong",
                    "isTruePBR": false
                }
            },
            "pbrMetallicRoughness": {
                "baseColorTexture": {
                    "index": 0,
                    "texCoord": 0
                },
                "baseColorFactor": [
                    1.0,
                    1.0,
                    1.0,
                    1.0
                ],
                "metallicFactor": 0.400000005960464,
                "roughnessFactor": 0.781273007392883
            }
        }
    ],
    "meshes": [
        {
            "name": "棱角球.001",
            "primitives": [
                {
                    "material": 0,
                    "mode": 4,
                    "attributes": {
                        "NORMAL": 2,
                        "POSITION": 1,
                        "TEXCOORD_0": 3
                    },
                    "indices": 0
                }
            ]
        }
    ],
    "nodes": [
        {
            "name": "RootNode",
            "translation": [
                0.0,
                0.0,
                0.0
            ],
            "rotation": [
                0.0,
                0.0,
                0.0,
                1.0
            ],
            "scale": [
                1.0,
                1.0,
                1.0
            ],
            "children": [
                1
            ]
        },
        {
            "name": "棱角球.001",
            "translation": [
                -5.04870979341448e-29,
                0.0,
                1.6940658945086e-21
            ],
            "rotation": [
                -0.679674327373505,
                -0.195045724511147,
                0.195045679807663,
                0.679674327373505
            ],
            "scale": [
                13.6129503250122,
                13.6129493713379,
                13.6129503250122
            ],
            "mesh": 0
        }
    ]
}