{
    "asset": {
        "generator": "FBX2glTF v0.9.7",
        "version": "2.0"
    },
    "scene": 0,
    "buffers": [
        {
            "byteLength": 19288,
            "uri": "buffer.bin"
        }
    ],
    "bufferViews": [
        {
            "buffer": 0,
            "byteLength": 40,
            "byteOffset": 0
        },
        {
            "buffer": 0,
            "byteLength": 120,
            "byteOffset": 40
        },
        {
            "buffer": 0,
            "byteLength": 120,
            "byteOffset": 160
        },
        {
            "buffer": 0,
            "byteLength": 40,
            "byteOffset": 280
        },
        {
            "buffer": 0,
            "byteLength": 120,
            "byteOffset": 320
        },
        {
            "buffer": 0,
            "byteLength": 720,
            "byteOffset": 440,
            "target": 34963
        },
        {
            "buffer": 0,
            "byteLength": 1176,
            "byteOffset": 1160,
            "target": 34962
        },
        {
            "buffer": 0,
            "byteLength": 1176,
            "byteOffset": 2336,
            "target": 34962
        },
        {
            "buffer": 0,
            "byteLength": 784,
            "byteOffset": 3512,
            "target": 34962
        },
        {
            "buffer": 0,
            "byteLength": 784,
            "byteOffset": 4296,
            "target": 34962
        },
        {
            "buffer": 0,
            "byteLength": 1568,
            "byteOffset": 5080,
            "target": 34962
        },
        {
            "buffer": 0,
            "byteLength": 2112,
            "byteOffset": 6648,
            "target": 34963
        },
        {
            "buffer": 0,
            "byteLength": 2160,
            "byteOffset": 8760,
            "target": 34962
        },
        {
            "buffer": 0,
            "byteLength": 2160,
            "byteOffset": 10920,
            "target": 34962
        },
        {
            "buffer": 0,
            "byteLength": 1440,
            "byteOffset": 13080,
            "target": 34962
        },
        {
            "buffer": 0,
            "byteLength": 1440,
            "byteOffset": 14520,
            "target": 34962
        },
        {
            "buffer": 0,
            "byteLength": 2880,
            "byteOffset": 15960,
            "target": 34962
        },
        {
            "buffer": 0,
            "byteLength": 448,
            "byteOffset": 18840
        }
    ],
    "scenes": [
        {
            "name": "Root Scene",
            "nodes": [
                0
            ]
        }
    ],
    "accessors": [
        {
            "componentType": 5126,
            "type": "SCALAR",
            "count": 10,
            "bufferView": 0,
            "byteOffset": 0,
            "min": [
                0.0
            ],
            "max": [
                0.375
            ]
        },
        {
            "componentType": 5126,
            "type": "VEC3",
            "count": 10,
            "bufferView": 1,
            "byteOffset": 0
        },
        {
            "componentType": 5126,
            "type": "VEC3",
            "count": 10,
            "bufferView": 2,
            "byteOffset": 0
        },
        {
            "componentType": 5126,
            "type": "SCALAR",
            "count": 10,
            "bufferView": 3,
            "byteOffset": 0,
            "min": [
                0.0
            ],
            "max": [
                0.375
            ]
        },
        {
            "componentType": 5126,
            "type": "VEC3",
            "count": 10,
            "bufferView": 4,
            "byteOffset": 0
        },
        {
            "componentType": 5123,
            "type": "SCALAR",
            "count": 360,
            "bufferView": 5,
            "byteOffset": 0
        },
        {
            "componentType": 5126,
            "type": "VEC3",
            "count": 98,
            "bufferView": 6,
            "byteOffset": 0,
            "min": [
                -0.00915380660444498,
                -2.06753614229171e-09,
                -0.00322869163937867
            ],
            "max": [
                0.00915380660444498,
                0.0136248655617237,
                0.00325652118772268
            ]
        },
        {
            "componentType": 5126,
            "type": "VEC3",
            "count": 98,
            "bufferView": 7,
            "byteOffset": 0
        },
        {
            "componentType": 5126,
            "type": "VEC2",
            "count": 98,
            "bufferView": 8,
            "byteOffset": 0
        },
        {
            "componentType": 5123,
            "type": "VEC4",
            "count": 98,
            "bufferView": 9,
            "byteOffset": 0
        },
        {
            "componentType": 5126,
            "type": "VEC4",
            "count": 98,
            "bufferView": 10,
            "byteOffset": 0
        },
        {
            "componentType": 5123,
            "type": "SCALAR",
            "count": 1056,
            "bufferView": 11,
            "byteOffset": 0
        },
        {
            "componentType": 5126,
            "type": "VEC3",
            "count": 180,
            "bufferView": 12,
            "byteOffset": 0,
            "min": [
                -0.00748765701428056,
                0.010643944144249,
                -0.0042522894218564
            ],
            "max": [
                0.00748765701428056,
                0.0180729702115059,
                0.00427567586302757
            ]
        },
        {
            "componentType": 5126,
            "type": "VEC3",
            "count": 180,
            "bufferView": 13,
            "byteOffset": 0
        },
        {
            "componentType": 5126,
            "type": "VEC2",
            "count": 180,
            "bufferView": 14,
            "byteOffset": 0
        },
        {
            "componentType": 5123,
            "type": "VEC4",
            "count": 180,
            "bufferView": 15,
            "byteOffset": 0
        },
        {
            "componentType": 5126,
            "type": "VEC4",
            "count": 180,
            "bufferView": 16,
            "byteOffset": 0
        },
        {
            "componentType": 5126,
            "type": "MAT4",
            "count": 7,
            "bufferView": 17,
            "byteOffset": 0
        }
    ],
    "images": [
        {
            "name": "colorTexture.png",
            "uri": "colorTexture.png"
        }
    ],
    "samplers": [
        {}
    ],
    "textures": [
        {
            "name": "base_color_texture",
            "sampler": 0,
            "source": 0
        }
    ],
    "materials": [
        {
            "name": "材质.001",
            "alphaMode": "OPAQUE",
            "extras": {
                "fromFBX": {
                    "shadingModel": "Phong",
                    "isTruePBR": false
                }
            },
            "pbrMetallicRoughness": {
                "baseColorTexture": {
                    "index": 0,
                    "texCoord": 0
                },
                "baseColorFactor": [
                    1.0,
                    1.0,
                    1.0,
                    1.0
                ],
                "metallicFactor": 0.400000005960464,
                "roughnessFactor": 0.157897815108299
            }
        },
        {
            "name": "材质",
            "alphaMode": "OPAQUE",
            "extras": {
                "fromFBX": {
                    "shadingModel": "Phong",
                    "isTruePBR": false
                }
            },
            "pbrMetallicRoughness": {
                "baseColorTexture": {
                    "index": 0,
                    "texCoord": 0
                },
                "baseColorFactor": [
                    1.0,
                    1.0,
                    1.0,
                    1.0
                ],
                "metallicFactor": 0.400000005960464,
                "roughnessFactor": 0.156998574733734
            }
        }
    ],
    "meshes": [
        {
            "name": "柱体.002",
            "primitives": [
                {
                    "material": 0,
                    "mode": 4,
                    "attributes": {
                        "JOINTS_0": 9,
                        "NORMAL": 7,
                        "POSITION": 6,
                        "TEXCOORD_0": 8,
                        "WEIGHTS_0": 10
                    },
                    "indices": 5
                },
                {
                    "material": 1,
                    "mode": 4,
                    "attributes": {
                        "JOINTS_0": 15,
                        "NORMAL": 13,
                        "POSITION": 12,
                        "TEXCOORD_0": 14,
                        "WEIGHTS_0": 16
                    },
                    "indices": 11
                }
            ]
        }
    ],
    "skins": [
        {
            "joints": [
                3,
                4,
                5,
                6,
                8,
                9,
                10
            ],
            "inverseBindMatrices": 17,
            "skeleton": 3
        }
    ],
    "animations": [
        {
            "name": "骨架|AttackAnim",
            "channels": [
                {
                    "sampler": 0,
                    "target": {
                        "node": 5,
                        "path": "scale"
                    }
                },
                {
                    "sampler": 1,
                    "target": {
                        "node": 9,
                        "path": "scale"
                    }
                }
            ],
            "samplers": [
                {
                    "input": 0,
                    "interpolation": "LINEAR",
                    "output": 1
                },
                {
                    "input": 0,
                    "interpolation": "LINEAR",
                    "output": 2
                }
            ]
        },
        {
            "name": "骨架|骨架Action",
            "channels": [
                {
                    "sampler": 0,
                    "target": {
                        "node": 5,
                        "path": "scale"
                    }
                }
            ],
            "samplers": [
                {
                    "input": 3,
                    "interpolation": "LINEAR",
                    "output": 4
                }
            ]
        }
    ],
    "nodes": [
        {
            "name": "RootNode",
            "translation": [
                0.0,
                0.0,
                0.0
            ],
            "rotation": [
                0.0,
                0.0,
                0.0,
                1.0
            ],
            "scale": [
                1.0,
                1.0,
                1.0
            ],
            "children": [
                1,
                2
            ]
        },
        {
            "name": "柱体.002",
            "translation": [
                0.0,
                0.0,
                0.0
            ],
            "rotation": [
                -0.707106828689575,
                0.0,
                0.0,
                0.707106709480286
            ],
            "scale": [
                100.0,
                100.0,
                100.0
            ],
            "mesh": 0,
            "skin": 0
        },
        {
            "name": "骨架",
            "translation": [
                0.0,
                0.0,
                0.0
            ],
            "rotation": [
                -0.707106828689575,
                0.0,
                0.0,
                0.707106709480286
            ],
            "scale": [
                100.0,
                100.0,
                100.0
            ],
            "children": [
                3
            ]
        },
        {
            "name": "Root",
            "translation": [
                0.0,
                -2.64697790100512e-25,
                -0.00998008064925671
            ],
            "rotation": [
                0.707106828689575,
                0.0,
                0.0,
                0.707106709480286
            ],
            "scale": [
                1.0,
                1.0,
                1.0
            ],
            "children": [
                4,
                8
            ]
        },
        {
            "name": "Shooder_R",
            "translation": [
                0.0,
                0.00999999977648258,
                0.0
            ],
            "rotation": [
                -2.66925432867993e-08,
                -2.66925397340856e-08,
                -0.707106828689575,
                0.707106709480286
            ],
            "scale": [
                1.0,
                1.0,
                1.0
            ],
            "children": [
                5
            ]
        },
        {
            "name": "Arm_R",
            "translation": [
                0.0,
                0.00598804745823145,
                0.0
            ],
            "rotation": [
                -0.707106828689575,
                -1.83662005722384e-15,
                5.33850972317396e-08,
                0.707106709480286
            ],
            "scale": [
                1.00608217716217,
                0.987945675849915,
                1.00608217716217
            ],
            "children": [
                6
            ]
        },
        {
            "name": "Hand_R",
            "translation": [
                2.31723581295418e-12,
                0.0121802352368832,
                -5.94551685662026e-10
            ],
            "rotation": [
                -3.70576914423756e-22,
                -1.00023886690206e-23,
                -3.5527136788005e-15,
                1.0
            ],
            "scale": [
                1.0,
                1.0,
                1.0
            ],
            "children": [
                7
            ]
        },
        {
            "name": "Hand_R_end",
            "translation": [
                0.0,
                0.00533027062192559,
                0.0
            ],
            "rotation": [
                -1.32348898008484e-23,
                -3.38494376859638e-24,
                3.15544362088405e-30,
                1.0
            ],
            "scale": [
                1.0,
                1.0,
                1.0
            ]
        },
        {
            "name": "Shooder_L",
            "translation": [
                0.0,
                0.00999999977648258,
                0.0
            ],
            "rotation": [
                0.500000059604645,
                -0.499999940395355,
                0.499999970197678,
                0.500000059604645
            ],
            "scale": [
                1.0,
                0.999999940395355,
                1.0
            ],
            "children": [
                9
            ]
        },
        {
            "name": "Arm_L",
            "translation": [
                5.29395580201024e-25,
                0.00598804745823145,
                0.0
            ],
            "rotation": [
                0.5,
                -0.499999970197678,
                0.5,
                0.5
            ],
            "scale": [
                1.00594460964203,
                0.988216161727905,
                1.00594460964203
            ],
            "children": [
                10
            ]
        },
        {
            "name": "Hand_L",
            "translation": [
                -1.18617236258972e-12,
                0.0121802324429154,
                -5.94315319180083e-10
            ],
            "rotation": [
                5.79674077279419e-22,
                5.96245541828466e-09,
                7.10542651056805e-15,
                1.0
            ],
            "scale": [
                1.0,
                0.999999940395355,
                1.0
            ],
            "children": [
                11
            ]
        },
        {
            "name": "Hand_L_end",
            "translation": [
                0.0,
                0.00533027062192559,
                -2.22044599961948e-18
            ],
            "rotation": [
                1.32348898008484e-23,
                -3.06470883956553e-25,
                6.61744490042422e-24,
                1.0
            ],
            "scale": [
                1.0,
                1.0,
                1.0
            ]
        }
    ]
}