{
    "asset": {
        "generator": "FBX2glTF v0.9.7",
        "version": "2.0"
    },
    "scene": 0,
    "buffers": [
        {
            "byteLength": 54660,
            "uri": "buffer.bin"
        }
    ],
    "bufferViews": [
        {
            "buffer": 0,
            "byteLength": 44,
            "byteOffset": 0
        },
        {
            "buffer": 0,
            "byteLength": 176,
            "byteOffset": 44
        },
        {
            "buffer": 0,
            "byteLength": 120,
            "byteOffset": 220
        },
        {
            "buffer": 0,
            "byteLength": 360,
            "byteOffset": 340
        },
        {
            "buffer": 0,
            "byteLength": 480,
            "byteOffset": 700
        },
        {
            "buffer": 0,
            "byteLength": 4584,
            "byteOffset": 1180,
            "target": 34963
        },
        {
            "buffer": 0,
            "byteLength": 7548,
            "byteOffset": 5764,
            "target": 34962
        },
        {
            "buffer": 0,
            "byteLength": 7548,
            "byteOffset": 13312,
            "target": 34962
        },
        {
            "buffer": 0,
            "byteLength": 5032,
            "byteOffset": 20860,
            "target": 34962
        },
        {
            "buffer": 0,
            "byteLength": 5032,
            "byteOffset": 25892,
            "target": 34962
        },
        {
            "buffer": 0,
            "byteLength": 10064,
            "byteOffset": 30924,
            "target": 34962
        },
        {
            "buffer": 0,
            "byteLength": 1344,
            "byteOffset": 40988,
            "target": 34963
        },
        {
            "buffer": 0,
            "byteLength": 2628,
            "byteOffset": 42332,
            "target": 34962
        },
        {
            "buffer": 0,
            "byteLength": 2628,
            "byteOffset": 44960,
            "target": 34962
        },
        {
            "buffer": 0,
            "byteLength": 1752,
            "byteOffset": 47588,
            "target": 34962
        },
        {
            "buffer": 0,
            "byteLength": 1752,
            "byteOffset": 49340,
            "target": 34962
        },
        {
            "buffer": 0,
            "byteLength": 3504,
            "byteOffset": 51092,
            "target": 34962
        },
        {
            "buffer": 0,
            "byteLength": 64,
            "byteOffset": 54596
        }
    ],
    "scenes": [
        {
            "name": "Root Scene",
            "nodes": [
                0
            ]
        }
    ],
    "accessors": [
        {
            "componentType": 5126,
            "type": "SCALAR",
            "count": 11,
            "bufferView": 0,
            "byteOffset": 0,
            "min": [
                0.0
            ],
            "max": [
                0.416666656732559
            ]
        },
        {
            "componentType": 5126,
            "type": "VEC4",
            "count": 11,
            "bufferView": 1,
            "byteOffset": 0
        },
        {
            "componentType": 5126,
            "type": "SCALAR",
            "count": 30,
            "bufferView": 2,
            "byteOffset": 0,
            "min": [
                0.0
            ],
            "max": [
                1.20833337306976
            ]
        },
        {
            "componentType": 5126,
            "type": "VEC3",
            "count": 30,
            "bufferView": 3,
            "byteOffset": 0
        },
        {
            "componentType": 5126,
            "type": "VEC4",
            "count": 30,
            "bufferView": 4,
            "byteOffset": 0
        },
        {
            "componentType": 5123,
            "type": "SCALAR",
            "count": 2292,
            "bufferView": 5,
            "byteOffset": 0
        },
        {
            "componentType": 5126,
            "type": "VEC3",
            "count": 629,
            "bufferView": 6,
            "byteOffset": 0,
            "min": [
                -0.0199999995529652,
                -0.0100000007078052,
                -0.00201510940678418
            ],
            "max": [
                0.0,
                0.00999999884516001,
                0.00201510940678418
            ]
        },
        {
            "componentType": 5126,
            "type": "VEC3",
            "count": 629,
            "bufferView": 7,
            "byteOffset": 0
        },
        {
            "componentType": 5126,
            "type": "VEC2",
            "count": 629,
            "bufferView": 8,
            "byteOffset": 0
        },
        {
            "componentType": 5123,
            "type": "VEC4",
            "count": 629,
            "bufferView": 9,
            "byteOffset": 0
        },
        {
            "componentType": 5126,
            "type": "VEC4",
            "count": 629,
            "bufferView": 10,
            "byteOffset": 0
        },
        {
            "componentType": 5123,
            "type": "SCALAR",
            "count": 672,
            "bufferView": 11,
            "byteOffset": 0
        },
        {
            "componentType": 5126,
            "type": "VEC3",
            "count": 219,
            "bufferView": 12,
            "byteOffset": 0,
            "min": [
                -0.0163361728191376,
                -0.0066013871692121,
                -0.00261490186676383
            ],
            "max": [
                -0.00399177009239793,
                0.00445715757086873,
                0.00259435432963073
            ]
        },
        {
            "componentType": 5126,
            "type": "VEC3",
            "count": 219,
            "bufferView": 13,
            "byteOffset": 0
        },
        {
            "componentType": 5126,
            "type": "VEC2",
            "count": 219,
            "bufferView": 14,
            "byteOffset": 0
        },
        {
            "componentType": 5123,
            "type": "VEC4",
            "count": 219,
            "bufferView": 15,
            "byteOffset": 0
        },
        {
            "componentType": 5126,
            "type": "VEC4",
            "count": 219,
            "bufferView": 16,
            "byteOffset": 0
        },
        {
            "componentType": 5126,
            "type": "MAT4",
            "count": 1,
            "bufferView": 17,
            "byteOffset": 0
        }
    ],
    "images": [
        {
            "name": "colorTexture.png",
            "uri": "colorTexture.png"
        }
    ],
    "samplers": [
        {}
    ],
    "textures": [
        {
            "name": "base_color_texture",
            "sampler": 0,
            "source": 0
        }
    ],
    "materials": [
        {
            "name": "材质.002",
            "alphaMode": "OPAQUE",
            "extras": {
                "fromFBX": {
                    "shadingModel": "Phong",
                    "isTruePBR": false
                }
            },
            "pbrMetallicRoughness": {
                "baseColorTexture": {
                    "index": 0,
                    "texCoord": 0
                },
                "baseColorFactor": [
                    1.0,
                    1.0,
                    1.0,
                    1.0
                ],
                "metallicFactor": 0.400000005960464,
                "roughnessFactor": 0.15056374669075
            }
        },
        {
            "name": "材质",
            "alphaMode": "OPAQUE",
            "extras": {
                "fromFBX": {
                    "shadingModel": "Phong",
                    "isTruePBR": false
                }
            },
            "pbrMetallicRoughness": {
                "baseColorTexture": {
                    "index": 0,
                    "texCoord": 0
                },
                "baseColorFactor": [
                    1.0,
                    1.0,
                    1.0,
                    1.0
                ],
                "metallicFactor": 0.400000005960464,
                "roughnessFactor": 0.152228176593781
            }
        }
    ],
    "meshes": [
        {
            "name": "柱体",
            "primitives": [
                {
                    "material": 0,
                    "mode": 4,
                    "attributes": {
                        "JOINTS_0": 9,
                        "NORMAL": 7,
                        "POSITION": 6,
                        "TEXCOORD_0": 8,
                        "WEIGHTS_0": 10
                    },
                    "indices": 5
                },
                {
                    "material": 1,
                    "mode": 4,
                    "attributes": {
                        "JOINTS_0": 15,
                        "NORMAL": 13,
                        "POSITION": 12,
                        "TEXCOORD_0": 14,
                        "WEIGHTS_0": 16
                    },
                    "indices": 11
                }
            ]
        }
    ],
    "skins": [
        {
            "joints": [
                3
            ],
            "inverseBindMatrices": 17,
            "skeleton": 3
        }
    ],
    "animations": [
        {
            "name": "骨架|竖起来",
            "channels": [
                {
                    "sampler": 0,
                    "target": {
                        "node": 3,
                        "path": "rotation"
                    }
                }
            ],
            "samplers": [
                {
                    "input": 0,
                    "interpolation": "LINEAR",
                    "output": 1
                }
            ]
        },
        {
            "name": "骨架|骨架Action",
            "channels": [
                {
                    "sampler": 0,
                    "target": {
                        "node": 2,
                        "path": "translation"
                    }
                },
                {
                    "sampler": 1,
                    "target": {
                        "node": 3,
                        "path": "rotation"
                    }
                }
            ],
            "samplers": [
                {
                    "input": 2,
                    "interpolation": "LINEAR",
                    "output": 3
                },
                {
                    "input": 2,
                    "interpolation": "LINEAR",
                    "output": 4
                }
            ]
        }
    ],
    "nodes": [
        {
            "name": "RootNode",
            "translation": [
                0.0,
                0.0,
                0.0
            ],
            "rotation": [
                0.0,
                0.0,
                0.0,
                1.0
            ],
            "scale": [
                1.0,
                1.0,
                1.0
            ],
            "children": [
                1,
                2
            ]
        },
        {
            "name": "柱体",
            "translation": [
                0.337172031402588,
                7.82607507705688,
                -0.656161844730377
            ],
            "rotation": [
                0.293232291936874,
                -0.293232440948486,
                -0.643439888954163,
                0.643439710140228
            ],
            "scale": [
                99.9999923706055,
                100.000015258789,
                100.000015258789
            ],
            "mesh": 0,
            "skin": 0
        },
        {
            "name": "骨架",
            "translation": [
                0.337172091007233,
                7.82607507705688,
                -0.656161844730377
            ],
            "rotation": [
                0.24763397872448,
                0.662327289581299,
                0.662327229976654,
                -0.247633993625641
            ],
            "scale": [
                100.000007629395,
                100.000007629395,
                99.9999923706055
            ],
            "children": [
                3
            ]
        },
        {
            "name": "Bone",
            "translation": [
                -5.54133849917093e-09,
                7.83910447665903e-09,
                -5.21232479400169e-09
            ],
            "rotation": [
                0.673586666584015,
                -0.215130195021629,
                -0.215130180120468,
                0.673586666584015
            ],
            "scale": [
                0.999999761581421,
                1.0,
                0.999999761581421
            ],
            "children": [
                4
            ]
        },
        {
            "name": "Bone_end",
            "translation": [
                -5.55111499904869e-19,
                0.0195531416684389,
                0.0
            ],
            "rotation": [
                0.0,
                -0.0,
                -6.61744490042422e-24,
                1.0
            ],
            "scale": [
                1.0,
                1.0,
                1.0
            ]
        }
    ]
}