{
    "asset": {
        "generator": "FBX2glTF v0.9.7",
        "version": "2.0"
    },
    "scene": 0,
    "buffers": [
        {
            "byteLength": 27880,
            "uri": "buffer.bin"
        }
    ],
    "bufferViews": [
        {
            "buffer": 0,
            "byteLength": 40,
            "byteOffset": 0
        },
        {
            "buffer": 0,
            "byteLength": 160,
            "byteOffset": 40
        },
        {
            "buffer": 0,
            "byteLength": 120,
            "byteOffset": 200
        },
        {
            "buffer": 0,
            "byteLength": 480,
            "byteOffset": 320
        },
        {
            "buffer": 0,
            "byteLength": 4320,
            "byteOffset": 800,
            "target": 34963
        },
        {
            "buffer": 0,
            "byteLength": 4836,
            "byteOffset": 5120,
            "target": 34962
        },
        {
            "buffer": 0,
            "byteLength": 4836,
            "byteOffset": 9956,
            "target": 34962
        },
        {
            "buffer": 0,
            "byteLength": 3224,
            "byteOffset": 14792,
            "target": 34962
        },
        {
            "buffer": 0,
            "byteLength": 3224,
            "byteOffset": 18016,
            "target": 34962
        },
        {
            "buffer": 0,
            "byteLength": 6448,
            "byteOffset": 21240,
            "target": 34962
        },
        {
            "buffer": 0,
            "byteLength": 192,
            "byteOffset": 27688
        }
    ],
    "scenes": [
        {
            "name": "Root Scene",
            "nodes": [
                0
            ]
        }
    ],
    "accessors": [
        {
            "componentType": 5126,
            "type": "SCALAR",
            "count": 10,
            "bufferView": 0,
            "byteOffset": 0,
            "min": [
                0.0
            ],
            "max": [
                0.375
            ]
        },
        {
            "componentType": 5126,
            "type": "VEC4",
            "count": 10,
            "bufferView": 1,
            "byteOffset": 0
        },
        {
            "componentType": 5126,
            "type": "SCALAR",
            "count": 30,
            "bufferView": 2,
            "byteOffset": 0,
            "min": [
                0.0
            ],
            "max": [
                1.20833337306976
            ]
        },
        {
            "componentType": 5126,
            "type": "VEC4",
            "count": 30,
            "bufferView": 3,
            "byteOffset": 0
        },
        {
            "componentType": 5123,
            "type": "SCALAR",
            "count": 2160,
            "bufferView": 4,
            "byteOffset": 0
        },
        {
            "componentType": 5126,
            "type": "VEC3",
            "count": 403,
            "bufferView": 5,
            "byteOffset": 0,
            "min": [
                -0.0149641567841172,
                -0.0167283192276955,
                -0.00983194075524807
            ],
            "max": [
                0.0150358462706208,
                0.0100841745734215,
                0.0101680625230074
            ]
        },
        {
            "componentType": 5126,
            "type": "VEC3",
            "count": 403,
            "bufferView": 6,
            "byteOffset": 0
        },
        {
            "componentType": 5126,
            "type": "VEC2",
            "count": 403,
            "bufferView": 7,
            "byteOffset": 0
        },
        {
            "componentType": 5123,
            "type": "VEC4",
            "count": 403,
            "bufferView": 8,
            "byteOffset": 0
        },
        {
            "componentType": 5126,
            "type": "VEC4",
            "count": 403,
            "bufferView": 9,
            "byteOffset": 0
        },
        {
            "componentType": 5126,
            "type": "MAT4",
            "count": 3,
            "bufferView": 10,
            "byteOffset": 0
        }
    ],
    "images": [
        {
            "name": "colorTexture.png",
            "uri": "colorTexture.png"
        }
    ],
    "samplers": [
        {}
    ],
    "textures": [
        {
            "name": "base_color_texture",
            "sampler": 0,
            "source": 0
        }
    ],
    "materials": [
        {
            "name": "材质.001",
            "alphaMode": "OPAQUE",
            "extras": {
                "fromFBX": {
                    "shadingModel": "Phong",
                    "isTruePBR": false
                }
            },
            "pbrMetallicRoughness": {
                "baseColorTexture": {
                    "index": 0,
                    "texCoord": 0
                },
                "baseColorFactor": [
                    1.0,
                    1.0,
                    1.0,
                    1.0
                ],
                "metallicFactor": 0.400000005960464,
                "roughnessFactor": 0.153500556945801
            }
        }
    ],
    "meshes": [
        {
            "name": "立方体",
            "primitives": [
                {
                    "material": 0,
                    "mode": 4,
                    "attributes": {
                        "JOINTS_0": 8,
                        "NORMAL": 6,
                        "POSITION": 5,
                        "TEXCOORD_0": 7,
                        "WEIGHTS_0": 9
                    },
                    "indices": 4
                }
            ]
        }
    ],
    "skins": [
        {
            "joints": [
                4,
                5,
                6
            ],
            "inverseBindMatrices": 10,
            "skeleton": 4
        }
    ],
    "animations": [
        {
            "name": "骨架|AttackAnim",
            "channels": [
                {
                    "sampler": 0,
                    "target": {
                        "node": 5,
                        "path": "rotation"
                    }
                }
            ],
            "samplers": [
                {
                    "input": 0,
                    "interpolation": "LINEAR",
                    "output": 1
                }
            ]
        },
        {
            "name": "骨架|ShowAnim",
            "channels": [
                {
                    "sampler": 0,
                    "target": {
                        "node": 4,
                        "path": "rotation"
                    }
                }
            ],
            "samplers": [
                {
                    "input": 2,
                    "interpolation": "LINEAR",
                    "output": 3
                }
            ]
        }
    ],
    "nodes": [
        {
            "name": "RootNode",
            "translation": [
                0.0,
                0.0,
                0.0
            ],
            "rotation": [
                0.0,
                0.0,
                0.0,
                1.0
            ],
            "scale": [
                1.0,
                1.0,
                1.0
            ],
            "children": [
                1,
                2,
                3
            ]
        },
        {
            "name": "立方体.001",
            "translation": [
                0.0,
                0.0,
                0.0
            ],
            "rotation": [
                -0.707106828689575,
                0.0,
                0.0,
                0.707106709480286
            ],
            "scale": [
                100.0,
                100.0,
                100.0
            ]
        },
        {
            "name": "立方体",
            "translation": [
                -2.06795153138257e-25,
                0.0,
                -9.31322574615479e-10
            ],
            "rotation": [
                -0.525440335273743,
                3.61255548449794e-17,
                -3.61255548449794e-17,
                0.850830435752869
            ],
            "scale": [
                100.0,
                100.0,
                100.0
            ],
            "mesh": 0,
            "skin": 0
        },
        {
            "name": "骨架",
            "translation": [
                0.0,
                0.0,
                0.0
            ],
            "rotation": [
                -0.707106828689575,
                0.0,
                0.0,
                0.707106709480286
            ],
            "scale": [
                100.0,
                100.0,
                100.0
            ],
            "children": [
                4
            ]
        },
        {
            "name": "Bone",
            "translation": [
                0.0,
                5.29395580201024e-25,
                -0.0278180353343487
            ],
            "rotation": [
                0.707106828689575,
                8.4293716895445e-08,
                8.42937026845902e-08,
                0.707106709480286
            ],
            "scale": [
                1.0,
                1.0,
                1.0
            ],
            "children": [
                5
            ]
        },
        {
            "name": "Bone.001",
            "translation": [
                -2.52435484028351e-31,
                0.00879000406712294,
                0.0
            ],
            "rotation": [
                7.52316384526264e-37,
                -0.0,
                -4.45043966780641e-30,
                1.0
            ],
            "scale": [
                1.0,
                1.0,
                1.0
            ],
            "children": [
                6
            ]
        },
        {
            "name": "Bone.002",
            "translation": [
                -1.26217742014175e-31,
                0.0191738903522491,
                5.29395580201024e-25
            ],
            "rotation": [
                -0.415437519550323,
                -1.65122724382627e-08,
                -1.25425259511758e-07,
                0.909621715545654
            ],
            "scale": [
                1.0,
                1.0,
                1.0
            ],
            "children": [
                7
            ]
        },
        {
            "name": "Bone.002_end",
            "translation": [
                8.27180563249221e-26,
                0.00881991069763899,
                3.46944687440543e-20
            ],
            "rotation": [
                5.55111512312578e-17,
                1.98523347012727e-23,
                1.32348898008484e-23,
                1.0
            ],
            "scale": [
                1.0,
                1.0,
                1.0
            ]
        }
    ]
}