{
    "asset": {
        "generator": "FBX2glTF v0.9.7",
        "version": "2.0"
    },
    "scene": 0,
    "buffers": [
        {
            "byteLength": 43492,
            "uri": "buffer.bin"
        }
    ],
    "bufferViews": [
        {
            "buffer": 0,
            "byteLength": 120,
            "byteOffset": 0
        },
        {
            "buffer": 0,
            "byteLength": 480,
            "byteOffset": 120
        },
        {
            "buffer": 0,
            "byteLength": 120,
            "byteOffset": 600
        },
        {
            "buffer": 0,
            "byteLength": 480,
            "byteOffset": 720
        },
        {
            "buffer": 0,
            "byteLength": 480,
            "byteOffset": 1200
        },
        {
            "buffer": 0,
            "byteLength": 6396,
            "byteOffset": 1680,
            "target": 34963
        },
        {
            "buffer": 0,
            "byteLength": 7548,
            "byteOffset": 8076,
            "target": 34962
        },
        {
            "buffer": 0,
            "byteLength": 7548,
            "byteOffset": 15624,
            "target": 34962
        },
        {
            "buffer": 0,
            "byteLength": 5032,
            "byteOffset": 23172,
            "target": 34962
        },
        {
            "buffer": 0,
            "byteLength": 5032,
            "byteOffset": 28204,
            "target": 34962
        },
        {
            "buffer": 0,
            "byteLength": 10064,
            "byteOffset": 33236,
            "target": 34962
        },
        {
            "buffer": 0,
            "byteLength": 192,
            "byteOffset": 43300
        }
    ],
    "scenes": [
        {
            "name": "Root Scene",
            "nodes": [
                0
            ]
        }
    ],
    "accessors": [
        {
            "componentType": 5126,
            "type": "SCALAR",
            "count": 30,
            "bufferView": 0,
            "byteOffset": 0,
            "min": [
                0.0
            ],
            "max": [
                1.20833337306976
            ]
        },
        {
            "componentType": 5126,
            "type": "VEC4",
            "count": 30,
            "bufferView": 1,
            "byteOffset": 0
        },
        {
            "componentType": 5126,
            "type": "SCALAR",
            "count": 30,
            "bufferView": 2,
            "byteOffset": 0,
            "min": [
                0.0
            ],
            "max": [
                1.20833337306976
            ]
        },
        {
            "componentType": 5126,
            "type": "VEC4",
            "count": 30,
            "bufferView": 3,
            "byteOffset": 0
        },
        {
            "componentType": 5126,
            "type": "VEC4",
            "count": 30,
            "bufferView": 4,
            "byteOffset": 0
        },
        {
            "componentType": 5123,
            "type": "SCALAR",
            "count": 3198,
            "bufferView": 5,
            "byteOffset": 0
        },
        {
            "componentType": 5126,
            "type": "VEC3",
            "count": 629,
            "bufferView": 6,
            "byteOffset": 0,
            "min": [
                -0.0253177676349878,
                -0.0249009002000093,
                -0.00016178131045308
            ],
            "max": [
                0.0253177676349878,
                0.0249009002000093,
                0.051931943744421
            ]
        },
        {
            "componentType": 5126,
            "type": "VEC3",
            "count": 629,
            "bufferView": 7,
            "byteOffset": 0
        },
        {
            "componentType": 5126,
            "type": "VEC2",
            "count": 629,
            "bufferView": 8,
            "byteOffset": 0
        },
        {
            "componentType": 5123,
            "type": "VEC4",
            "count": 629,
            "bufferView": 9,
            "byteOffset": 0
        },
        {
            "componentType": 5126,
            "type": "VEC4",
            "count": 629,
            "bufferView": 10,
            "byteOffset": 0
        },
        {
            "componentType": 5126,
            "type": "MAT4",
            "count": 3,
            "bufferView": 11,
            "byteOffset": 0
        }
    ],
    "images": [
        {
            "name": "colorTexture.png",
            "uri": "colorTexture.png"
        }
    ],
    "samplers": [
        {}
    ],
    "textures": [
        {
            "name": "base_color_texture",
            "sampler": 0,
            "source": 0
        }
    ],
    "materials": [
        {
            "name": "材质",
            "alphaMode": "OPAQUE",
            "extras": {
                "fromFBX": {
                    "shadingModel": "Phong",
                    "isTruePBR": false
                }
            },
            "pbrMetallicRoughness": {
                "baseColorTexture": {
                    "index": 0,
                    "texCoord": 0
                },
                "baseColorFactor": [
                    1.0,
                    1.0,
                    1.0,
                    1.0
                ],
                "metallicFactor": 0.400000005960464,
                "roughnessFactor": 0.148133486509323
            }
        }
    ],
    "meshes": [
        {
            "name": "平面.001",
            "primitives": [
                {
                    "material": 0,
                    "mode": 4,
                    "attributes": {
                        "JOINTS_0": 9,
                        "NORMAL": 7,
                        "POSITION": 6,
                        "TEXCOORD_0": 8,
                        "WEIGHTS_0": 10
                    },
                    "indices": 5
                }
            ]
        }
    ],
    "skins": [
        {
            "joints": [
                3,
                4,
                5
            ],
            "inverseBindMatrices": 11,
            "skeleton": 3
        }
    ],
    "animations": [
        {
            "name": "骨架|AttackAnim",
            "channels": [
                {
                    "sampler": 0,
                    "target": {
                        "node": 4,
                        "path": "rotation"
                    }
                }
            ],
            "samplers": [
                {
                    "input": 0,
                    "interpolation": "LINEAR",
                    "output": 1
                }
            ]
        },
        {
            "name": "骨架|MoveAnim",
            "channels": [
                {
                    "sampler": 0,
                    "target": {
                        "node": 4,
                        "path": "rotation"
                    }
                },
                {
                    "sampler": 1,
                    "target": {
                        "node": 5,
                        "path": "rotation"
                    }
                }
            ],
            "samplers": [
                {
                    "input": 2,
                    "interpolation": "LINEAR",
                    "output": 3
                },
                {
                    "input": 2,
                    "interpolation": "LINEAR",
                    "output": 4
                }
            ]
        }
    ],
    "nodes": [
        {
            "name": "RootNode",
            "translation": [
                0.0,
                0.0,
                0.0
            ],
            "rotation": [
                0.0,
                0.0,
                0.0,
                1.0
            ],
            "scale": [
                1.0,
                1.0,
                1.0
            ],
            "children": [
                1,
                2
            ]
        },
        {
            "name": "平面.001",
            "translation": [
                0.0,
                -1.19209289550781e-07,
                0.0
            ],
            "rotation": [
                -0.353553235530853,
                0.612372636795044,
                0.61237233877182,
                0.353553384542465
            ],
            "scale": [
                39.2815704345703,
                39.2815704345703,
                39.2815704345703
            ],
            "mesh": 0,
            "skin": 0
        },
        {
            "name": "骨架",
            "translation": [
                0.0,
                0.0,
                0.0
            ],
            "rotation": [
                -0.707106828689575,
                0.0,
                0.0,
                0.707106709480286
            ],
            "scale": [
                100.0,
                100.0,
                100.0
            ],
            "children": [
                3
            ]
        },
        {
            "name": "Root",
            "translation": [
                0.0,
                0.0,
                0.0
            ],
            "rotation": [
                0.707106828689575,
                0.0,
                0.0,
                0.707106709480286
            ],
            "scale": [
                1.0,
                1.0,
                1.0
            ],
            "children": [
                4
            ]
        },
        {
            "name": "Body",
            "translation": [
                0.0,
                0.00356182572431862,
                0.0
            ],
            "rotation": [
                0.0,
                1.19209275339927e-07,
                0.0,
                1.0
            ],
            "scale": [
                1.0,
                0.999999940395355,
                1.0
            ],
            "children": [
                5
            ]
        },
        {
            "name": "Top",
            "translation": [
                0.0,
                0.0145226400345564,
                0.0
            ],
            "rotation": [
                0.0,
                1.4210854715202e-14,
                0.0,
                1.0
            ],
            "scale": [
                1.0,
                1.0,
                1.0
            ],
            "children": [
                6
            ]
        },
        {
            "name": "Top_end",
            "translation": [
                0.0,
                0.00205786572769284,
                0.0
            ],
            "rotation": [
                0.0,
                0.0,
                0.0,
                1.0
            ],
            "scale": [
                1.0,
                1.0,
                1.0
            ]
        }
    ]
}