{
    "asset": {
        "generator": "FBX2glTF v0.9.7",
        "version": "2.0"
    },
    "scene": 0,
    "buffers": [
        {
            "byteLength": 147904,
            "uri": "buffer.bin"
        }
    ],
    "bufferViews": [
        {
            "buffer": 0,
            "byteLength": 20,
            "byteOffset": 0
        },
        {
            "buffer": 0,
            "byteLength": 60,
            "byteOffset": 20
        },
        {
            "buffer": 0,
            "byteLength": 1896,
            "byteOffset": 80,
            "target": 34963
        },
        {
            "buffer": 0,
            "byteLength": 3072,
            "byteOffset": 1976,
            "target": 34962
        },
        {
            "buffer": 0,
            "byteLength": 3072,
            "byteOffset": 5048,
            "target": 34962
        },
        {
            "buffer": 0,
            "byteLength": 2048,
            "byteOffset": 8120,
            "target": 34962
        },
        {
            "buffer": 0,
            "byteLength": 2048,
            "byteOffset": 10168,
            "target": 34962
        },
        {
            "buffer": 0,
            "byteLength": 2048,
            "byteOffset": 12216,
            "target": 34962
        },
        {
            "buffer": 0,
            "byteLength": 4096,
            "byteOffset": 14264,
            "target": 34962
        },
        {
            "buffer": 0,
            "byteLength": 10632,
            "byteOffset": 18360,
            "target": 34963
        },
        {
            "buffer": 0,
            "byteLength": 22272,
            "byteOffset": 28992,
            "target": 34962
        },
        {
            "buffer": 0,
            "byteLength": 22272,
            "byteOffset": 51264,
            "target": 34962
        },
        {
            "buffer": 0,
            "byteLength": 14848,
            "byteOffset": 73536,
            "target": 34962
        },
        {
            "buffer": 0,
            "byteLength": 14848,
            "byteOffset": 88384,
            "target": 34962
        },
        {
            "buffer": 0,
            "byteLength": 14848,
            "byteOffset": 103232,
            "target": 34962
        },
        {
            "buffer": 0,
            "byteLength": 29696,
            "byteOffset": 118080,
            "target": 34962
        },
        {
            "buffer": 0,
            "byteLength": 128,
            "byteOffset": 147776
        }
    ],
    "scenes": [
        {
            "name": "Root Scene",
            "nodes": [
                0
            ]
        }
    ],
    "accessors": [
        {
            "componentType": 5126,
            "type": "SCALAR",
            "count": 5,
            "bufferView": 0,
            "byteOffset": 0,
            "min": [
                0.0
            ],
            "max": [
                0.16666667163372
            ]
        },
        {
            "componentType": 5126,
            "type": "VEC3",
            "count": 5,
            "bufferView": 1,
            "byteOffset": 0
        },
        {
            "componentType": 5123,
            "type": "SCALAR",
            "count": 948,
            "bufferView": 2,
            "byteOffset": 0
        },
        {
            "componentType": 5126,
            "type": "VEC3",
            "count": 256,
            "bufferView": 3,
            "byteOffset": 0,
            "min": [
                -0.00999999977648258,
                -0.00999999977648258,
                -4.44897632405628e-05
            ],
            "max": [
                0.00999999977648258,
                0.00999999977648258,
                0.00757872546091676
            ]
        },
        {
            "componentType": 5126,
            "type": "VEC3",
            "count": 256,
            "bufferView": 4,
            "byteOffset": 0
        },
        {
            "componentType": 5126,
            "type": "VEC2",
            "count": 256,
            "bufferView": 5,
            "byteOffset": 0
        },
        {
            "componentType": 5126,
            "type": "VEC2",
            "count": 256,
            "bufferView": 6,
            "byteOffset": 0
        },
        {
            "componentType": 5123,
            "type": "VEC4",
            "count": 256,
            "bufferView": 7,
            "byteOffset": 0
        },
        {
            "componentType": 5126,
            "type": "VEC4",
            "count": 256,
            "bufferView": 8,
            "byteOffset": 0
        },
        {
            "componentType": 5123,
            "type": "SCALAR",
            "count": 5316,
            "bufferView": 9,
            "byteOffset": 0
        },
        {
            "componentType": 5126,
            "type": "VEC3",
            "count": 1856,
            "bufferView": 10,
            "byteOffset": 0,
            "min": [
                -0.00605977047234774,
                -0.00230975449085236,
                0.00660596136003733
            ],
            "max": [
                0.0064226295799017,
                0.0023548468016088,
                0.00818735361099243
            ]
        },
        {
            "componentType": 5126,
            "type": "VEC3",
            "count": 1856,
            "bufferView": 11,
            "byteOffset": 0
        },
        {
            "componentType": 5126,
            "type": "VEC2",
            "count": 1856,
            "bufferView": 12,
            "byteOffset": 0
        },
        {
            "componentType": 5126,
            "type": "VEC2",
            "count": 1856,
            "bufferView": 13,
            "byteOffset": 0
        },
        {
            "componentType": 5123,
            "type": "VEC4",
            "count": 1856,
            "bufferView": 14,
            "byteOffset": 0
        },
        {
            "componentType": 5126,
            "type": "VEC4",
            "count": 1856,
            "bufferView": 15,
            "byteOffset": 0
        },
        {
            "componentType": 5126,
            "type": "MAT4",
            "count": 2,
            "bufferView": 16,
            "byteOffset": 0
        }
    ],
    "images": [
        {
            "name": "colorTexture.png",
            "uri": "colorTexture.png"
        }
    ],
    "samplers": [
        {}
    ],
    "textures": [
        {
            "name": "base_color_texture",
            "sampler": 0,
            "source": 0
        }
    ],
    "materials": [
        {
            "name": "材质",
            "alphaMode": "OPAQUE",
            "extras": {
                "fromFBX": {
                    "shadingModel": "Phong",
                    "isTruePBR": false
                }
            },
            "pbrMetallicRoughness": {
                "baseColorTexture": {
                    "index": 0,
                    "texCoord": 0
                },
                "baseColorFactor": [
                    1.0,
                    1.0,
                    1.0,
                    1.0
                ],
                "metallicFactor": 0.400000005960464,
                "roughnessFactor": 0.142384365200996
            }
        },
        {
            "name": "材质.001",
            "alphaMode": "OPAQUE",
            "extras": {
                "fromFBX": {
                    "shadingModel": "Phong",
                    "isTruePBR": false
                }
            },
            "pbrMetallicRoughness": {
                "baseColorTexture": {
                    "index": 0,
                    "texCoord": 0
                },
                "baseColorFactor": [
                    1.0,
                    1.0,
                    1.0,
                    1.0
                ],
                "metallicFactor": 0.400000005960464,
                "roughnessFactor": 0.140206515789032
            }
        }
    ],
    "meshes": [
        {
            "name": "柱体",
            "primitives": [
                {
                    "material": 0,
                    "mode": 4,
                    "attributes": {
                        "JOINTS_0": 7,
                        "NORMAL": 4,
                        "POSITION": 3,
                        "TEXCOORD_0": 5,
                        "TEXCOORD_1": 6,
                        "WEIGHTS_0": 8
                    },
                    "indices": 2
                },
                {
                    "material": 1,
                    "mode": 4,
                    "attributes": {
                        "JOINTS_0": 14,
                        "NORMAL": 11,
                        "POSITION": 10,
                        "TEXCOORD_0": 12,
                        "TEXCOORD_1": 13,
                        "WEIGHTS_0": 15
                    },
                    "indices": 9
                }
            ]
        }
    ],
    "skins": [
        {
            "joints": [
                3,
                4
            ],
            "inverseBindMatrices": 16,
            "skeleton": 3
        }
    ],
    "animations": [
        {
            "name": "骨架|骨架Action",
            "channels": [
                {
                    "sampler": 0,
                    "target": {
                        "node": 4,
                        "path": "scale"
                    }
                }
            ],
            "samplers": [
                {
                    "input": 0,
                    "interpolation": "LINEAR",
                    "output": 1
                }
            ]
        }
    ],
    "nodes": [
        {
            "name": "RootNode",
            "translation": [
                0.0,
                0.0,
                0.0
            ],
            "rotation": [
                0.0,
                0.0,
                0.0,
                1.0
            ],
            "scale": [
                1.0,
                1.0,
                1.0
            ],
            "children": [
                1,
                2
            ]
        },
        {
            "name": "柱体",
            "translation": [
                0.0,
                0.0,
                0.0
            ],
            "rotation": [
                -0.707106828689575,
                0.0,
                0.0,
                0.707106709480286
            ],
            "scale": [
                100.0,
                100.0,
                100.0
            ],
            "mesh": 0,
            "skin": 0
        },
        {
            "name": "骨架",
            "translation": [
                0.0,
                0.0,
                0.0
            ],
            "rotation": [
                -0.707106828689575,
                0.0,
                0.0,
                0.707106709480286
            ],
            "scale": [
                100.0,
                100.0,
                100.0
            ],
            "children": [
                3
            ]
        },
        {
            "name": "Root",
            "translation": [
                0.0,
                0.0,
                0.0
            ],
            "rotation": [
                0.707106828689575,
                0.0,
                0.0,
                0.707106709480286
            ],
            "scale": [
                1.0,
                0.985463440418243,
                1.0
            ],
            "children": [
                4
            ]
        },
        {
            "name": "Root.001",
            "translation": [
                0.0,
                0.00486942892894149,
                0.0
            ],
            "rotation": [
                0.0,
                0.0,
                0.0,
                1.0
            ],
            "scale": [
                1.0,
                0.999999940395355,
                1.0
            ],
            "children": [
                5
            ]
        },
        {
            "name": "Root.001_end",
            "translation": [
                0.0,
                0.00310626719146967,
                0.0
            ],
            "rotation": [
                0.0,
                0.0,
                0.0,
                1.0
            ],
            "scale": [
                1.0,
                1.0,
                1.0
            ]
        }
    ]
}