{
    "asset": {
        "generator": "FBX2glTF v0.9.7",
        "version": "2.0"
    },
    "scene": 0,
    "buffers": [
        {
            "byteLength": 49048,
            "uri": "buffer.bin"
        }
    ],
    "bufferViews": [
        {
            "buffer": 0,
            "byteLength": 20,
            "byteOffset": 0
        },
        {
            "buffer": 0,
            "byteLength": 60,
            "byteOffset": 20
        },
        {
            "buffer": 0,
            "byteLength": 2208,
            "byteOffset": 80,
            "target": 34963
        },
        {
            "buffer": 0,
            "byteLength": 5316,
            "byteOffset": 2288,
            "target": 34962
        },
        {
            "buffer": 0,
            "byteLength": 5316,
            "byteOffset": 7604,
            "target": 34962
        },
        {
            "buffer": 0,
            "byteLength": 3544,
            "byteOffset": 12920,
            "target": 34962
        },
        {
            "buffer": 0,
            "byteLength": 3544,
            "byteOffset": 16464,
            "target": 34962
        },
        {
            "buffer": 0,
            "byteLength": 3544,
            "byteOffset": 20008,
            "target": 34962
        },
        {
            "buffer": 0,
            "byteLength": 7088,
            "byteOffset": 23552,
            "target": 34962
        },
        {
            "buffer": 0,
            "byteLength": 1896,
            "byteOffset": 30640,
            "target": 34963
        },
        {
            "buffer": 0,
            "byteLength": 3072,
            "byteOffset": 32536,
            "target": 34962
        },
        {
            "buffer": 0,
            "byteLength": 3072,
            "byteOffset": 35608,
            "target": 34962
        },
        {
            "buffer": 0,
            "byteLength": 2048,
            "byteOffset": 38680,
            "target": 34962
        },
        {
            "buffer": 0,
            "byteLength": 2048,
            "byteOffset": 40728,
            "target": 34962
        },
        {
            "buffer": 0,
            "byteLength": 2048,
            "byteOffset": 42776,
            "target": 34962
        },
        {
            "buffer": 0,
            "byteLength": 4096,
            "byteOffset": 44824,
            "target": 34962
        },
        {
            "buffer": 0,
            "byteLength": 128,
            "byteOffset": 48920
        }
    ],
    "scenes": [
        {
            "name": "Root Scene",
            "nodes": [
                0
            ]
        }
    ],
    "accessors": [
        {
            "componentType": 5126,
            "type": "SCALAR",
            "count": 5,
            "bufferView": 0,
            "byteOffset": 0,
            "min": [
                0.0
            ],
            "max": [
                0.16666667163372
            ]
        },
        {
            "componentType": 5126,
            "type": "VEC3",
            "count": 5,
            "bufferView": 1,
            "byteOffset": 0
        },
        {
            "componentType": 5123,
            "type": "SCALAR",
            "count": 1104,
            "bufferView": 2,
            "byteOffset": 0
        },
        {
            "componentType": 5126,
            "type": "VEC3",
            "count": 443,
            "bufferView": 3,
            "byteOffset": 0,
            "min": [
                -0.00605805870145559,
                -0.00229033641517162,
                0.00660613924264908
            ],
            "max": [
                0.00645274482667446,
                0.00237969146110117,
                0.00818739272654057
            ]
        },
        {
            "componentType": 5126,
            "type": "VEC3",
            "count": 443,
            "bufferView": 4,
            "byteOffset": 0
        },
        {
            "componentType": 5126,
            "type": "VEC2",
            "count": 443,
            "bufferView": 5,
            "byteOffset": 0
        },
        {
            "componentType": 5126,
            "type": "VEC2",
            "count": 443,
            "bufferView": 6,
            "byteOffset": 0
        },
        {
            "componentType": 5123,
            "type": "VEC4",
            "count": 443,
            "bufferView": 7,
            "byteOffset": 0
        },
        {
            "componentType": 5126,
            "type": "VEC4",
            "count": 443,
            "bufferView": 8,
            "byteOffset": 0
        },
        {
            "componentType": 5123,
            "type": "SCALAR",
            "count": 948,
            "bufferView": 9,
            "byteOffset": 0
        },
        {
            "componentType": 5126,
            "type": "VEC3",
            "count": 256,
            "bufferView": 10,
            "byteOffset": 0,
            "min": [
                -0.00999999977648258,
                -0.00999999977648258,
                -4.44897632405628e-05
            ],
            "max": [
                0.00999999977648258,
                0.00999999977648258,
                0.00757872546091676
            ]
        },
        {
            "componentType": 5126,
            "type": "VEC3",
            "count": 256,
            "bufferView": 11,
            "byteOffset": 0
        },
        {
            "componentType": 5126,
            "type": "VEC2",
            "count": 256,
            "bufferView": 12,
            "byteOffset": 0
        },
        {
            "componentType": 5126,
            "type": "VEC2",
            "count": 256,
            "bufferView": 13,
            "byteOffset": 0
        },
        {
            "componentType": 5123,
            "type": "VEC4",
            "count": 256,
            "bufferView": 14,
            "byteOffset": 0
        },
        {
            "componentType": 5126,
            "type": "VEC4",
            "count": 256,
            "bufferView": 15,
            "byteOffset": 0
        },
        {
            "componentType": 5126,
            "type": "MAT4",
            "count": 2,
            "bufferView": 16,
            "byteOffset": 0
        }
    ],
    "images": [
        {
            "name": "colorTexture.png",
            "uri": "colorTexture.png"
        }
    ],
    "samplers": [
        {}
    ],
    "textures": [
        {
            "name": "base_color_texture",
            "sampler": 0,
            "source": 0
        }
    ],
    "materials": [
        {
            "name": "材质.001",
            "alphaMode": "OPAQUE",
            "extras": {
                "fromFBX": {
                    "shadingModel": "Phong",
                    "isTruePBR": false
                }
            },
            "pbrMetallicRoughness": {
                "baseColorTexture": {
                    "index": 0,
                    "texCoord": 0
                },
                "baseColorFactor": [
                    1.0,
                    1.0,
                    1.0,
                    1.0
                ],
                "metallicFactor": 0.400000005960464,
                "roughnessFactor": 0.187967360019684
            }
        },
        {
            "name": "材质",
            "alphaMode": "OPAQUE",
            "extras": {
                "fromFBX": {
                    "shadingModel": "Phong",
                    "isTruePBR": false
                }
            },
            "pbrMetallicRoughness": {
                "baseColorTexture": {
                    "index": 0,
                    "texCoord": 0
                },
                "baseColorFactor": [
                    1.0,
                    1.0,
                    1.0,
                    1.0
                ],
                "metallicFactor": 0.400000005960464,
                "roughnessFactor": 0.142384365200996
            }
        }
    ],
    "meshes": [
        {
            "name": "柱体.001",
            "primitives": [
                {
                    "material": 0,
                    "mode": 4,
                    "attributes": {
                        "JOINTS_0": 7,
                        "NORMAL": 4,
                        "POSITION": 3,
                        "TEXCOORD_0": 5,
                        "TEXCOORD_1": 6,
                        "WEIGHTS_0": 8
                    },
                    "indices": 2
                },
                {
                    "material": 1,
                    "mode": 4,
                    "attributes": {
                        "JOINTS_0": 14,
                        "NORMAL": 11,
                        "POSITION": 10,
                        "TEXCOORD_0": 12,
                        "TEXCOORD_1": 13,
                        "WEIGHTS_0": 15
                    },
                    "indices": 9
                }
            ]
        }
    ],
    "skins": [
        {
            "joints": [
                2,
                3
            ],
            "inverseBindMatrices": 16,
            "skeleton": 2
        }
    ],
    "animations": [
        {
            "name": "骨架|骨架Action",
            "channels": [
                {
                    "sampler": 0,
                    "target": {
                        "node": 3,
                        "path": "scale"
                    }
                }
            ],
            "samplers": [
                {
                    "input": 0,
                    "interpolation": "LINEAR",
                    "output": 1
                }
            ]
        }
    ],
    "nodes": [
        {
            "name": "RootNode",
            "translation": [
                0.0,
                0.0,
                0.0
            ],
            "rotation": [
                0.0,
                0.0,
                0.0,
                1.0
            ],
            "scale": [
                1.0,
                1.0,
                1.0
            ],
            "children": [
                1,
                5
            ]
        },
        {
            "name": "骨架",
            "translation": [
                0.0,
                0.0,
                0.0
            ],
            "rotation": [
                -0.707106828689575,
                0.0,
                0.0,
                0.707106709480286
            ],
            "scale": [
                100.0,
                100.0,
                100.0
            ],
            "children": [
                2
            ]
        },
        {
            "name": "Root",
            "translation": [
                0.0,
                0.0,
                0.0
            ],
            "rotation": [
                0.707106828689575,
                0.0,
                0.0,
                0.707106709480286
            ],
            "scale": [
                1.0,
                0.985463440418243,
                1.0
            ],
            "children": [
                3
            ]
        },
        {
            "name": "Root.001",
            "translation": [
                0.0,
                0.00486942892894149,
                0.0
            ],
            "rotation": [
                0.0,
                0.0,
                0.0,
                1.0
            ],
            "scale": [
                1.0,
                0.999999940395355,
                1.0
            ],
            "children": [
                4
            ]
        },
        {
            "name": "Root.001_end",
            "translation": [
                0.0,
                0.00310626719146967,
                0.0
            ],
            "rotation": [
                0.0,
                0.0,
                0.0,
                1.0
            ],
            "scale": [
                1.0,
                1.0,
                1.0
            ]
        },
        {
            "name": "柱体.001",
            "translation": [
                0.0,
                0.0,
                0.0
            ],
            "rotation": [
                -0.707106828689575,
                0.0,
                0.0,
                0.707106709480286
            ],
            "scale": [
                100.0,
                100.0,
                100.0
            ],
            "mesh": 0,
            "skin": 0
        }
    ]
}