{
    "asset": {
        "generator": "FBX2glTF v0.9.7",
        "version": "2.0"
    },
    "scene": 0,
    "buffers": [
        {
            "byteLength": 33260,
            "uri": "buffer.bin"
        }
    ],
    "bufferViews": [
        {
            "buffer": 0,
            "byteLength": 40,
            "byteOffset": 0
        },
        {
            "buffer": 0,
            "byteLength": 160,
            "byteOffset": 40
        },
        {
            "buffer": 0,
            "byteLength": 120,
            "byteOffset": 200
        },
        {
            "buffer": 0,
            "byteLength": 480,
            "byteOffset": 320
        },
        {
            "buffer": 0,
            "byteLength": 120,
            "byteOffset": 800
        },
        {
            "buffer": 0,
            "byteLength": 360,
            "byteOffset": 920
        },
        {
            "buffer": 0,
            "byteLength": 480,
            "byteOffset": 1280
        },
        {
            "buffer": 0,
            "byteLength": 360,
            "byteOffset": 1760
        },
        {
            "buffer": 0,
            "byteLength": 360,
            "byteOffset": 2120
        },
        {
            "buffer": 0,
            "byteLength": 360,
            "byteOffset": 2480
        },
        {
            "buffer": 0,
            "byteLength": 360,
            "byteOffset": 2840
        },
        {
            "buffer": 0,
            "byteLength": 360,
            "byteOffset": 3200
        },
        {
            "buffer": 0,
            "byteLength": 2580,
            "byteOffset": 3560,
            "target": 34963
        },
        {
            "buffer": 0,
            "byteLength": 5688,
            "byteOffset": 6140,
            "target": 34962
        },
        {
            "buffer": 0,
            "byteLength": 5688,
            "byteOffset": 11828,
            "target": 34962
        },
        {
            "buffer": 0,
            "byteLength": 3792,
            "byteOffset": 17516,
            "target": 34962
        },
        {
            "buffer": 0,
            "byteLength": 3792,
            "byteOffset": 21308,
            "target": 34962
        },
        {
            "buffer": 0,
            "byteLength": 7584,
            "byteOffset": 25100,
            "target": 34962
        },
        {
            "buffer": 0,
            "byteLength": 576,
            "byteOffset": 32684
        }
    ],
    "scenes": [
        {
            "name": "Root Scene",
            "nodes": [
                0
            ]
        }
    ],
    "accessors": [
        {
            "componentType": 5126,
            "type": "SCALAR",
            "count": 10,
            "bufferView": 0,
            "byteOffset": 0,
            "min": [
                0.0
            ],
            "max": [
                0.375
            ]
        },
        {
            "componentType": 5126,
            "type": "VEC4",
            "count": 10,
            "bufferView": 1,
            "byteOffset": 0
        },
        {
            "componentType": 5126,
            "type": "SCALAR",
            "count": 30,
            "bufferView": 2,
            "byteOffset": 0,
            "min": [
                0.0
            ],
            "max": [
                1.20833337306976
            ]
        },
        {
            "componentType": 5126,
            "type": "VEC4",
            "count": 30,
            "bufferView": 3,
            "byteOffset": 0
        },
        {
            "componentType": 5126,
            "type": "SCALAR",
            "count": 30,
            "bufferView": 4,
            "byteOffset": 0,
            "min": [
                0.0
            ],
            "max": [
                1.20833337306976
            ]
        },
        {
            "componentType": 5126,
            "type": "VEC3",
            "count": 30,
            "bufferView": 5,
            "byteOffset": 0
        },
        {
            "componentType": 5126,
            "type": "VEC4",
            "count": 30,
            "bufferView": 6,
            "byteOffset": 0
        },
        {
            "componentType": 5126,
            "type": "VEC3",
            "count": 30,
            "bufferView": 7,
            "byteOffset": 0
        },
        {
            "componentType": 5126,
            "type": "VEC3",
            "count": 30,
            "bufferView": 8,
            "byteOffset": 0
        },
        {
            "componentType": 5126,
            "type": "VEC3",
            "count": 30,
            "bufferView": 9,
            "byteOffset": 0
        },
        {
            "componentType": 5126,
            "type": "VEC3",
            "count": 30,
            "bufferView": 10,
            "byteOffset": 0
        },
        {
            "componentType": 5126,
            "type": "VEC3",
            "count": 30,
            "bufferView": 11,
            "byteOffset": 0
        },
        {
            "componentType": 5123,
            "type": "SCALAR",
            "count": 1290,
            "bufferView": 12,
            "byteOffset": 0
        },
        {
            "componentType": 5126,
            "type": "VEC3",
            "count": 474,
            "bufferView": 13,
            "byteOffset": 0,
            "min": [
                -0.0219968799501657,
                -0.028019106015563,
                2.07930806936929e-05
            ],
            "max": [
                0.0269060134887695,
                0.028019106015563,
                0.0461069196462631
            ]
        },
        {
            "componentType": 5126,
            "type": "VEC3",
            "count": 474,
            "bufferView": 14,
            "byteOffset": 0
        },
        {
            "componentType": 5126,
            "type": "VEC2",
            "count": 474,
            "bufferView": 15,
            "byteOffset": 0
        },
        {
            "componentType": 5123,
            "type": "VEC4",
            "count": 474,
            "bufferView": 16,
            "byteOffset": 0
        },
        {
            "componentType": 5126,
            "type": "VEC4",
            "count": 474,
            "bufferView": 17,
            "byteOffset": 0
        },
        {
            "componentType": 5126,
            "type": "MAT4",
            "count": 9,
            "bufferView": 18,
            "byteOffset": 0
        }
    ],
    "images": [
        {
            "name": "colorTexture.png",
            "uri": "colorTexture.png"
        }
    ],
    "samplers": [
        {}
    ],
    "textures": [
        {
            "name": "base_color_texture",
            "sampler": 0,
            "source": 0
        }
    ],
    "materials": [
        {
            "name": "材质",
            "alphaMode": "OPAQUE",
            "extras": {
                "fromFBX": {
                    "shadingModel": "Phong",
                    "isTruePBR": false
                }
            },
            "pbrMetallicRoughness": {
                "baseColorTexture": {
                    "index": 0,
                    "texCoord": 0
                },
                "baseColorFactor": [
                    1.0,
                    1.0,
                    1.0,
                    1.0
                ],
                "metallicFactor": 0.400000005960464,
                "roughnessFactor": 0.152228176593781
            }
        }
    ],
    "meshes": [
        {
            "name": "柱体",
            "primitives": [
                {
                    "material": 0,
                    "mode": 4,
                    "attributes": {
                        "JOINTS_0": 16,
                        "NORMAL": 14,
                        "POSITION": 13,
                        "TEXCOORD_0": 15,
                        "WEIGHTS_0": 17
                    },
                    "indices": 12
                }
            ]
        }
    ],
    "skins": [
        {
            "joints": [
                4,
                5,
                6,
                7,
                9,
                10,
                12,
                13,
                15
            ],
            "inverseBindMatrices": 18,
            "skeleton": 4
        }
    ],
    "animations": [
        {
            "name": "骨架|AttackAnim",
            "channels": [
                {
                    "sampler": 0,
                    "target": {
                        "node": 6,
                        "path": "rotation"
                    }
                }
            ],
            "samplers": [
                {
                    "input": 0,
                    "interpolation": "LINEAR",
                    "output": 1
                }
            ]
        },
        {
            "name": "骨架|ShowAnim",
            "channels": [
                {
                    "sampler": 0,
                    "target": {
                        "node": 4,
                        "path": "rotation"
                    }
                }
            ],
            "samplers": [
                {
                    "input": 2,
                    "interpolation": "LINEAR",
                    "output": 3
                }
            ]
        },
        {
            "name": "骨架|todestroy",
            "channels": [
                {
                    "sampler": 0,
                    "target": {
                        "node": 4,
                        "path": "scale"
                    }
                },
                {
                    "sampler": 1,
                    "target": {
                        "node": 7,
                        "path": "rotation"
                    }
                },
                {
                    "sampler": 2,
                    "target": {
                        "node": 7,
                        "path": "scale"
                    }
                },
                {
                    "sampler": 3,
                    "target": {
                        "node": 9,
                        "path": "scale"
                    }
                },
                {
                    "sampler": 4,
                    "target": {
                        "node": 10,
                        "path": "scale"
                    }
                },
                {
                    "sampler": 5,
                    "target": {
                        "node": 12,
                        "path": "scale"
                    }
                },
                {
                    "sampler": 6,
                    "target": {
                        "node": 13,
                        "path": "scale"
                    }
                }
            ],
            "samplers": [
                {
                    "input": 4,
                    "interpolation": "LINEAR",
                    "output": 5
                },
                {
                    "input": 4,
                    "interpolation": "LINEAR",
                    "output": 6
                },
                {
                    "input": 4,
                    "interpolation": "LINEAR",
                    "output": 7
                },
                {
                    "input": 4,
                    "interpolation": "LINEAR",
                    "output": 8
                },
                {
                    "input": 4,
                    "interpolation": "LINEAR",
                    "output": 9
                },
                {
                    "input": 4,
                    "interpolation": "LINEAR",
                    "output": 10
                },
                {
                    "input": 4,
                    "interpolation": "LINEAR",
                    "output": 11
                }
            ]
        }
    ],
    "nodes": [
        {
            "name": "RootNode",
            "translation": [
                0.0,
                0.0,
                0.0
            ],
            "rotation": [
                0.0,
                0.0,
                0.0,
                1.0
            ],
            "scale": [
                1.0,
                1.0,
                1.0
            ],
            "children": [
                1,
                2,
                3
            ]
        },
        {
            "name": "柱体",
            "translation": [
                0.0,
                0.0,
                0.0
            ],
            "rotation": [
                -0.500000059604645,
                0.499999940395355,
                0.499999970197678,
                0.500000059604645
            ],
            "scale": [
                100.0,
                100.0,
                100.0
            ],
            "mesh": 0,
            "skin": 0
        },
        {
            "name": "骨架.001",
            "translation": [
                0.0,
                14.0702266693115,
                0.0
            ],
            "rotation": [
                -0.707106828689575,
                0.0,
                0.0,
                0.707106709480286
            ],
            "scale": [
                100.0,
                100.0,
                100.0
            ]
        },
        {
            "name": "骨架",
            "translation": [
                0.0,
                0.0,
                0.0
            ],
            "rotation": [
                -0.707106828689575,
                0.0,
                0.0,
                0.707106709480286
            ],
            "scale": [
                100.0,
                100.0,
                100.0
            ],
            "children": [
                4,
                15
            ]
        },
        {
            "name": "Root",
            "translation": [
                0.0,
                0.0,
                0.0
            ],
            "rotation": [
                0.499999970197678,
                0.50000011920929,
                0.5,
                0.49999988079071
            ],
            "scale": [
                1.0,
                0.999999940395355,
                1.0
            ],
            "children": [
                5,
                9,
                12
            ]
        },
        {
            "name": "Middle",
            "translation": [
                0.0,
                0.0115413283929229,
                6.05438726954274e-26
            ],
            "rotation": [
                -2.82274168483809e-08,
                -2.92590467410037e-08,
                0.888733863830566,
                0.458423554897308
            ],
            "scale": [
                1.00000011920929,
                1.0,
                1.0
            ],
            "children": [
                6
            ]
        },
        {
            "name": "Down",
            "translation": [
                -1.06170772173897e-09,
                0.0202842708677053,
                -2.77555822330738e-18
            ],
            "rotation": [
                -3.57374119630549e-07,
                -2.70937388080483e-08,
                0.992859244346619,
                -0.11929165571928
            ],
            "scale": [
                0.999998688697815,
                0.999999940395355,
                1.0
            ],
            "children": [
                7
            ]
        },
        {
            "name": "Up",
            "translation": [
                2.06054423523838e-10,
                0.0252370685338974,
                -1.12576607920727e-15
            ],
            "rotation": [
                4.79311168533059e-08,
                1.02835237214549e-07,
                -0.0694507732987404,
                0.997585356235504
            ],
            "scale": [
                0.999999940395355,
                1.0,
                1.0
            ],
            "children": [
                8
            ]
        },
        {
            "name": "Up_end",
            "translation": [
                -2.22044599961948e-18,
                0.022522896528244,
                -2.1175823208041e-24
            ],
            "rotation": [
                -1.05879118406788e-22,
                -5.29395592033938e-23,
                2.77555756156289e-17,
                1.0
            ],
            "scale": [
                1.0,
                1.0,
                1.0
            ]
        },
        {
            "name": "L_F_Arm",
            "translation": [
                0.0,
                0.0115413283929229,
                6.05438726954274e-26
            ],
            "rotation": [
                -0.714667856693268,
                -1.7741335079596e-25,
                1.82968845672649e-20,
                0.699463963508606
            ],
            "scale": [
                1.0,
                1.0,
                1.0
            ],
            "children": [
                10
            ]
        },
        {
            "name": "L_S_Arm",
            "translation": [
                -5.29395580201024e-25,
                0.0120779694989324,
                -4.09781930610364e-10
            ],
            "rotation": [
                0.00486892182379961,
                -1.38934215213917e-17,
                -8.8818943112844e-16,
                0.99998813867569
            ],
            "scale": [
                1.0,
                0.99999988079071,
                0.999999940395355
            ],
            "children": [
                11
            ]
        },
        {
            "name": "L_S_Arm_end",
            "translation": [
                -2.64697790100512e-25,
                0.011037215590477,
                -2.22044599961948e-18
            ],
            "rotation": [
                1.88779883179888e-18,
                1.32348898008484e-23,
                2.64697796016969e-23,
                1.0
            ],
            "scale": [
                1.0,
                1.0,
                1.0
            ]
        },
        {
            "name": "R_F_Arm",
            "translation": [
                0.0,
                0.0115413283929229,
                6.05438726954274e-26
            ],
            "rotation": [
                0.714667856693268,
                -8.33918193166028e-07,
                -8.52044649946038e-07,
                0.699463963508606
            ],
            "scale": [
                1.0,
                1.0,
                1.0
            ],
            "children": [
                13
            ]
        },
        {
            "name": "R_S_Arm",
            "translation": [
                -3.90798502550473e-16,
                0.0120779694989324,
                4.09780681609462e-10
            ],
            "rotation": [
                -0.00486892182379961,
                -8.23837672214722e-06,
                5.17221856455308e-08,
                0.99998813867569
            ],
            "scale": [
                1.0,
                0.99999988079071,
                0.999999940395355
            ],
            "children": [
                14
            ]
        },
        {
            "name": "R_S_Arm_end",
            "translation": [
                0.0,
                0.011037215590477,
                0.0
            ],
            "rotation": [
                -1.03316275054672e-18,
                3.3881317890172e-21,
                3.50049120803118e-39,
                1.0
            ],
            "scale": [
                1.0,
                1.0,
                1.0
            ]
        },
        {
            "name": "Bone",
            "translation": [
                0.0,
                0.0,
                0.0
            ],
            "rotation": [
                0.499999970197678,
                0.50000011920929,
                0.5,
                0.49999988079071
            ],
            "scale": [
                1.0,
                0.999999940395355,
                1.0
            ],
            "children": [
                16
            ]
        },
        {
            "name": "Bone_end",
            "translation": [
                2.64697790100512e-25,
                0.00999999977648258,
                -2.37657274539617e-26
            ],
            "rotation": [
                1.20466033757651e-23,
                -2.64697796016969e-23,
                -1.32348898008484e-23,
                1.0
            ],
            "scale": [
                1.0,
                1.0,
                1.0
            ]
        }
    ]
}