{
    "asset": {
        "generator": "FBX2glTF v0.9.7",
        "version": "2.0"
    },
    "scene": 0,
    "buffers": [
        {
            "byteLength": 31564,
            "uri": "buffer.bin"
        }
    ],
    "bufferViews": [
        {
            "buffer": 0,
            "byteLength": 40,
            "byteOffset": 0
        },
        {
            "buffer": 0,
            "byteLength": 160,
            "byteOffset": 40
        },
        {
            "buffer": 0,
            "byteLength": 120,
            "byteOffset": 200
        },
        {
            "buffer": 0,
            "byteLength": 480,
            "byteOffset": 320
        },
        {
            "buffer": 0,
            "byteLength": 120,
            "byteOffset": 800
        },
        {
            "buffer": 0,
            "byteLength": 360,
            "byteOffset": 920
        },
        {
            "buffer": 0,
            "byteLength": 480,
            "byteOffset": 1280
        },
        {
            "buffer": 0,
            "byteLength": 360,
            "byteOffset": 1760
        },
        {
            "buffer": 0,
            "byteLength": 2580,
            "byteOffset": 2120,
            "target": 34963
        },
        {
            "buffer": 0,
            "byteLength": 5688,
            "byteOffset": 4700,
            "target": 34962
        },
        {
            "buffer": 0,
            "byteLength": 5688,
            "byteOffset": 10388,
            "target": 34962
        },
        {
            "buffer": 0,
            "byteLength": 3792,
            "byteOffset": 16076,
            "target": 34962
        },
        {
            "buffer": 0,
            "byteLength": 3792,
            "byteOffset": 19868,
            "target": 34962
        },
        {
            "buffer": 0,
            "byteLength": 7584,
            "byteOffset": 23660,
            "target": 34962
        },
        {
            "buffer": 0,
            "byteLength": 320,
            "byteOffset": 31244
        }
    ],
    "scenes": [
        {
            "name": "Root Scene",
            "nodes": [
                0
            ]
        }
    ],
    "accessors": [
        {
            "componentType": 5126,
            "type": "SCALAR",
            "count": 10,
            "bufferView": 0,
            "byteOffset": 0,
            "min": [
                0.0
            ],
            "max": [
                0.375
            ]
        },
        {
            "componentType": 5126,
            "type": "VEC4",
            "count": 10,
            "bufferView": 1,
            "byteOffset": 0
        },
        {
            "componentType": 5126,
            "type": "SCALAR",
            "count": 30,
            "bufferView": 2,
            "byteOffset": 0,
            "min": [
                0.0
            ],
            "max": [
                1.20833337306976
            ]
        },
        {
            "componentType": 5126,
            "type": "VEC4",
            "count": 30,
            "bufferView": 3,
            "byteOffset": 0
        },
        {
            "componentType": 5126,
            "type": "SCALAR",
            "count": 30,
            "bufferView": 4,
            "byteOffset": 0,
            "min": [
                0.0
            ],
            "max": [
                1.20833337306976
            ]
        },
        {
            "componentType": 5126,
            "type": "VEC3",
            "count": 30,
            "bufferView": 5,
            "byteOffset": 0
        },
        {
            "componentType": 5126,
            "type": "VEC4",
            "count": 30,
            "bufferView": 6,
            "byteOffset": 0
        },
        {
            "componentType": 5126,
            "type": "VEC3",
            "count": 30,
            "bufferView": 7,
            "byteOffset": 0
        },
        {
            "componentType": 5123,
            "type": "SCALAR",
            "count": 1290,
            "bufferView": 8,
            "byteOffset": 0
        },
        {
            "componentType": 5126,
            "type": "VEC3",
            "count": 474,
            "bufferView": 9,
            "byteOffset": 0,
            "min": [
                -0.0219968799501657,
                -0.028019106015563,
                2.07930806936929e-05
            ],
            "max": [
                0.0269060134887695,
                0.028019106015563,
                0.0461069196462631
            ]
        },
        {
            "componentType": 5126,
            "type": "VEC3",
            "count": 474,
            "bufferView": 10,
            "byteOffset": 0
        },
        {
            "componentType": 5126,
            "type": "VEC2",
            "count": 474,
            "bufferView": 11,
            "byteOffset": 0
        },
        {
            "componentType": 5123,
            "type": "VEC4",
            "count": 474,
            "bufferView": 12,
            "byteOffset": 0
        },
        {
            "componentType": 5126,
            "type": "VEC4",
            "count": 474,
            "bufferView": 13,
            "byteOffset": 0
        },
        {
            "componentType": 5126,
            "type": "MAT4",
            "count": 5,
            "bufferView": 14,
            "byteOffset": 0
        }
    ],
    "images": [
        {
            "name": "base_color_texture",
            "uri": "data:image/png;base64,"
        }
    ],
    "samplers": [
        {}
    ],
    "textures": [
        {
            "name": "base_color_texture",
            "sampler": 0,
            "source": 0
        }
    ],
    "materials": [
        {
            "name": "材质",
            "alphaMode": "OPAQUE",
            "extras": {
                "fromFBX": {
                    "shadingModel": "Phong",
                    "isTruePBR": false
                }
            },
            "pbrMetallicRoughness": {
                "baseColorTexture": {
                    "index": 0,
                    "texCoord": 0
                },
                "baseColorFactor": [
                    1.0,
                    1.0,
                    1.0,
                    1.0
                ],
                "metallicFactor": 0.400000005960464,
                "roughnessFactor": 0.152228176593781
            }
        }
    ],
    "meshes": [
        {
            "name": "柱体",
            "primitives": [
                {
                    "material": 0,
                    "mode": 4,
                    "attributes": {
                        "JOINTS_0": 12,
                        "NORMAL": 10,
                        "POSITION": 9,
                        "TEXCOORD_0": 11,
                        "WEIGHTS_0": 13
                    },
                    "indices": 8
                }
            ]
        }
    ],
    "skins": [
        {
            "joints": [
                4,
                5,
                6,
                7,
                9
            ],
            "inverseBindMatrices": 14,
            "skeleton": 4
        }
    ],
    "animations": [
        {
            "name": "骨架.001|AttackAnim",
            "channels": [
                {
                    "sampler": 0,
                    "target": {
                        "node": 6,
                        "path": "rotation"
                    }
                }
            ],
            "samplers": [
                {
                    "input": 0,
                    "interpolation": "LINEAR",
                    "output": 1
                }
            ]
        },
        {
            "name": "骨架.001|ShowAnim",
            "channels": [
                {
                    "sampler": 0,
                    "target": {
                        "node": 4,
                        "path": "rotation"
                    }
                }
            ],
            "samplers": [
                {
                    "input": 2,
                    "interpolation": "LINEAR",
                    "output": 3
                }
            ]
        },
        {
            "name": "骨架.001|todestroy",
            "channels": [
                {
                    "sampler": 0,
                    "target": {
                        "node": 4,
                        "path": "scale"
                    }
                },
                {
                    "sampler": 1,
                    "target": {
                        "node": 7,
                        "path": "rotation"
                    }
                },
                {
                    "sampler": 2,
                    "target": {
                        "node": 7,
                        "path": "scale"
                    }
                }
            ],
            "samplers": [
                {
                    "input": 4,
                    "interpolation": "LINEAR",
                    "output": 5
                },
                {
                    "input": 4,
                    "interpolation": "LINEAR",
                    "output": 6
                },
                {
                    "input": 4,
                    "interpolation": "LINEAR",
                    "output": 7
                }
            ]
        }
    ],
    "nodes": [
        {
            "name": "RootNode",
            "translation": [
                0.0,
                0.0,
                0.0
            ],
            "rotation": [
                0.0,
                0.0,
                0.0,
                1.0
            ],
            "scale": [
                1.0,
                1.0,
                1.0
            ],
            "children": [
                1,
                2,
                3
            ]
        },
        {
            "name": "柱体",
            "translation": [
                0.0,
                0.0,
                0.0
            ],
            "rotation": [
                -0.707106828689575,
                0.0,
                0.0,
                0.707106709480286
            ],
            "scale": [
                100.0,
                100.0,
                100.0
            ],
            "mesh": 0,
            "skin": 0
        },
        {
            "name": "骨架",
            "translation": [
                0.0,
                14.0702266693115,
                0.0
            ],
            "rotation": [
                -0.707106828689575,
                0.0,
                0.0,
                0.707106709480286
            ],
            "scale": [
                100.0,
                100.0,
                100.0
            ]
        },
        {
            "name": "骨架.001",
            "translation": [
                0.0,
                0.0,
                0.0
            ],
            "rotation": [
                -0.707106828689575,
                0.0,
                0.0,
                0.707106709480286
            ],
            "scale": [
                100.0,
                100.0,
                100.0
            ],
            "children": [
                4,
                9
            ]
        },
        {
            "name": "Root",
            "translation": [
                0.0,
                0.0,
                0.0
            ],
            "rotation": [
                0.707106828689575,
                0.0,
                0.0,
                0.707106709480286
            ],
            "scale": [
                1.0,
                1.0,
                1.0
            ],
            "children": [
                5
            ]
        },
        {
            "name": "Middle",
            "translation": [
                0.0,
                0.0115413283929229,
                0.0
            ],
            "rotation": [
                -2.82274204010946e-08,
                -2.92590218720079e-08,
                0.888733744621277,
                0.458423763513565
            ],
            "scale": [
                0.999999940395355,
                1.0,
                1.0
            ],
            "children": [
                6
            ]
        },
        {
            "name": "Down",
            "translation": [
                -9.31322172159632e-11,
                0.0202842708677053,
                1.03250742084233e-16
            ],
            "rotation": [
                -3.57374290160806e-07,
                -2.70914259914434e-08,
                0.992859303951263,
                -0.119291059672832
            ],
            "scale": [
                1.00000298023224,
                1.00000011920929,
                1.0
            ],
            "children": [
                7
            ]
        },
        {
            "name": "Up",
            "translation": [
                5.7509097484143e-10,
                0.0252370685338974,
                -2.83106865985459e-17
            ],
            "rotation": [
                4.79309996137545e-08,
                1.02835251425404e-07,
                -0.0694504752755165,
                0.997585415840149
            ],
            "scale": [
                0.999999940395355,
                0.999999940395355,
                1.0
            ],
            "children": [
                8
            ]
        },
        {
            "name": "Up_end",
            "translation": [
                0.0,
                0.022522896528244,
                2.1175823208041e-24
            ],
            "rotation": [
                3.30872245021211e-23,
                1.05879118406788e-22,
                -2.7877750192103e-17,
                1.0
            ],
            "scale": [
                1.0,
                1.0,
                1.0
            ]
        },
        {
            "name": "Bone",
            "translation": [
                0.0,
                0.0,
                0.0
            ],
            "rotation": [
                0.707106828689575,
                0.0,
                0.0,
                0.707106709480286
            ],
            "scale": [
                1.0,
                1.0,
                1.0
            ],
            "children": [
                10
            ]
        },
        {
            "name": "Bone_end",
            "translation": [
                0.0,
                0.00999999977648258,
                0.0
            ],
            "rotation": [
                0.0,
                0.0,
                0.0,
                1.0
            ],
            "scale": [
                1.0,
                1.0,
                1.0
            ]
        }
    ]
}