{
    "asset": {
        "generator": "FBX2glTF v0.9.7",
        "version": "2.0"
    },
    "scene": 0,
    "buffers": [
        {
            "byteLength": 32248,
            "uri": "buffer.bin"
        }
    ],
    "bufferViews": [
        {
            "buffer": 0,
            "byteLength": 60,
            "byteOffset": 0
        },
        {
            "buffer": 0,
            "byteLength": 240,
            "byteOffset": 60
        },
        {
            "buffer": 0,
            "byteLength": 2202,
            "byteOffset": 300,
            "target": 34963
        },
        {
            "buffer": 0,
            "byteLength": 6360,
            "byteOffset": 2504,
            "target": 34962
        },
        {
            "buffer": 0,
            "byteLength": 6360,
            "byteOffset": 8864,
            "target": 34962
        },
        {
            "buffer": 0,
            "byteLength": 4240,
            "byteOffset": 15224,
            "target": 34962
        },
        {
            "buffer": 0,
            "byteLength": 4240,
            "byteOffset": 19464,
            "target": 34962
        },
        {
            "buffer": 0,
            "byteLength": 8480,
            "byteOffset": 23704,
            "target": 34962
        },
        {
            "buffer": 0,
            "byteLength": 64,
            "byteOffset": 32184
        }
    ],
    "scenes": [
        {
            "name": "Root Scene",
            "nodes": [
                0
            ]
        }
    ],
    "accessors": [
        {
            "componentType": 5126,
            "type": "SCALAR",
            "count": 15,
            "bufferView": 0,
            "byteOffset": 0,
            "min": [
                0.0
            ],
            "max": [
                0.583333313465118
            ]
        },
        {
            "componentType": 5126,
            "type": "VEC4",
            "count": 15,
            "bufferView": 1,
            "byteOffset": 0
        },
        {
            "componentType": 5123,
            "type": "SCALAR",
            "count": 1101,
            "bufferView": 2,
            "byteOffset": 0
        },
        {
            "componentType": 5126,
            "type": "VEC3",
            "count": 530,
            "bufferView": 3,
            "byteOffset": 0,
            "min": [
                -0.0305663980543613,
                -0.0311572849750519,
                -0.0044080875813961
            ],
            "max": [
                0.0332230664789677,
                0.0311572849750519,
                0.0523540303111076
            ]
        },
        {
            "componentType": 5126,
            "type": "VEC3",
            "count": 530,
            "bufferView": 4,
            "byteOffset": 0
        },
        {
            "componentType": 5126,
            "type": "VEC2",
            "count": 530,
            "bufferView": 5,
            "byteOffset": 0
        },
        {
            "componentType": 5123,
            "type": "VEC4",
            "count": 530,
            "bufferView": 6,
            "byteOffset": 0
        },
        {
            "componentType": 5126,
            "type": "VEC4",
            "count": 530,
            "bufferView": 7,
            "byteOffset": 0
        },
        {
            "componentType": 5126,
            "type": "MAT4",
            "count": 1,
            "bufferView": 8,
            "byteOffset": 0
        }
    ],
    "samplers": [
        {}
    ],
    "materials": [
        {
            "name": "材质",
            "alphaMode": "OPAQUE",
            "extras": {
                "fromFBX": {
                    "shadingModel": "Phong",
                    "isTruePBR": false
                }
            },
            "pbrMetallicRoughness": {
                "baseColorFactor": [
                    0.800000011920929,
                    0.800000011920929,
                    0.800000011920929,
                    1.0
                ],
                "metallicFactor": 0.400000005960464,
                "roughnessFactor": 0.229415729641914
            }
        }
    ],
    "meshes": [
        {
            "name": "柱体",
            "primitives": [
                {
                    "material": 0,
                    "mode": 4,
                    "attributes": {
                        "JOINTS_0": 6,
                        "NORMAL": 4,
                        "POSITION": 3,
                        "TEXCOORD_0": 5,
                        "WEIGHTS_0": 7
                    },
                    "indices": 2
                }
            ]
        }
    ],
    "skins": [
        {
            "joints": [
                3
            ],
            "inverseBindMatrices": 8,
            "skeleton": 3
        }
    ],
    "animations": [
        {
            "name": "骨架|骨架Action",
            "channels": [
                {
                    "sampler": 0,
                    "target": {
                        "node": 3,
                        "path": "rotation"
                    }
                }
            ],
            "samplers": [
                {
                    "input": 0,
                    "interpolation": "LINEAR",
                    "output": 1
                }
            ]
        }
    ],
    "nodes": [
        {
            "name": "RootNode",
            "translation": [
                0.0,
                0.0,
                0.0
            ],
            "rotation": [
                0.0,
                0.0,
                0.0,
                1.0
            ],
            "scale": [
                1.0,
                1.0,
                1.0
            ],
            "children": [
                1,
                2
            ]
        },
        {
            "name": "柱体",
            "translation": [
                0.0,
                0.0,
                0.0
            ],
            "rotation": [
                -0.707106828689575,
                0.0,
                0.0,
                0.707106709480286
            ],
            "scale": [
                100.0,
                100.0,
                100.0
            ],
            "mesh": 0,
            "skin": 0
        },
        {
            "name": "骨架",
            "translation": [
                0.0,
                0.0,
                0.0
            ],
            "rotation": [
                -0.707106828689575,
                0.0,
                0.0,
                0.707106709480286
            ],
            "scale": [
                100.0,
                100.0,
                100.0
            ],
            "children": [
                3
            ]
        },
        {
            "name": "Bone",
            "translation": [
                0.0189055260270834,
                -6.42870978673216e-10,
                0.00478473166003823
            ],
            "rotation": [
                0.673424184322357,
                -0.215638354420662,
                0.215638309717178,
                0.673424184322357
            ],
            "scale": [
                1.0,
                1.0,
                1.0
            ],
            "children": [
                4
            ]
        },
        {
            "name": "Bone_end",
            "translation": [
                -2.22044599961948e-18,
                0.0499314442276955,
                7.94093370301536e-25
            ],
            "rotation": [
                1.32348898008484e-23,
                6.54368547781153e-40,
                4.94426730161605e-17,
                1.0
            ],
            "scale": [
                1.0,
                1.0,
                1.0
            ]
        }
    ]
}