{
    "asset": {
        "generator": "FBX2glTF v0.9.7",
        "version": "2.0"
    },
    "scene": 0,
    "buffers": [
        {
            "byteLength": 39712,
            "uri": "buffer.bin"
        }
    ],
    "bufferViews": [
        {
            "buffer": 0,
            "byteLength": 28,
            "byteOffset": 0
        },
        {
            "buffer": 0,
            "byteLength": 84,
            "byteOffset": 28
        },
        {
            "buffer": 0,
            "byteLength": 5760,
            "byteOffset": 112,
            "target": 34963
        },
        {
            "buffer": 0,
            "byteLength": 7224,
            "byteOffset": 5872,
            "target": 34962
        },
        {
            "buffer": 0,
            "byteLength": 7224,
            "byteOffset": 13096,
            "target": 34962
        },
        {
            "buffer": 0,
            "byteLength": 4816,
            "byteOffset": 20320,
            "target": 34962
        },
        {
            "buffer": 0,
            "byteLength": 4816,
            "byteOffset": 25136,
            "target": 34962
        },
        {
            "buffer": 0,
            "byteLength": 9632,
            "byteOffset": 29952,
            "target": 34962
        },
        {
            "buffer": 0,
            "byteLength": 128,
            "byteOffset": 39584
        }
    ],
    "scenes": [
        {
            "name": "Root Scene",
            "nodes": [
                0
            ]
        }
    ],
    "accessors": [
        {
            "componentType": 5126,
            "type": "SCALAR",
            "count": 7,
            "bufferView": 0,
            "byteOffset": 0,
            "min": [
                0.0
            ],
            "max": [
                0.25
            ]
        },
        {
            "componentType": 5126,
            "type": "VEC3",
            "count": 7,
            "bufferView": 1,
            "byteOffset": 0
        },
        {
            "componentType": 5123,
            "type": "SCALAR",
            "count": 2880,
            "bufferView": 2,
            "byteOffset": 0
        },
        {
            "componentType": 5126,
            "type": "VEC3",
            "count": 602,
            "bufferView": 3,
            "byteOffset": 0,
            "min": [
                -0.0190173648297787,
                -0.0271651949733496,
                -0.01234061550349
            ],
            "max": [
                0.0190173648297787,
                0.0398561842739582,
                0.0119243143126369
            ]
        },
        {
            "componentType": 5126,
            "type": "VEC3",
            "count": 602,
            "bufferView": 4,
            "byteOffset": 0
        },
        {
            "componentType": 5126,
            "type": "VEC2",
            "count": 602,
            "bufferView": 5,
            "byteOffset": 0
        },
        {
            "componentType": 5123,
            "type": "VEC4",
            "count": 602,
            "bufferView": 6,
            "byteOffset": 0
        },
        {
            "componentType": 5126,
            "type": "VEC4",
            "count": 602,
            "bufferView": 7,
            "byteOffset": 0
        },
        {
            "componentType": 5126,
            "type": "MAT4",
            "count": 2,
            "bufferView": 8,
            "byteOffset": 0
        }
    ],
    "images": [
        {
            "name": "colorTexture.png",
            "uri": "colorTexture.png"
        }
    ],
    "samplers": [
        {}
    ],
    "textures": [
        {
            "name": "base_color_texture",
            "sampler": 0,
            "source": 0
        }
    ],
    "materials": [
        {
            "name": "材质",
            "alphaMode": "OPAQUE",
            "extras": {
                "fromFBX": {
                    "shadingModel": "Phong",
                    "isTruePBR": false
                }
            },
            "pbrMetallicRoughness": {
                "baseColorTexture": {
                    "index": 0,
                    "texCoord": 0
                },
                "baseColorFactor": [
                    1.0,
                    1.0,
                    1.0,
                    1.0
                ],
                "metallicFactor": 0.400000005960464,
                "roughnessFactor": 0.154794111847878
            }
        }
    ],
    "meshes": [
        {
            "name": "立方体.001",
            "primitives": [
                {
                    "material": 0,
                    "mode": 4,
                    "attributes": {
                        "JOINTS_0": 6,
                        "NORMAL": 4,
                        "POSITION": 3,
                        "TEXCOORD_0": 5,
                        "WEIGHTS_0": 7
                    },
                    "indices": 2
                }
            ]
        }
    ],
    "skins": [
        {
            "joints": [
                3,
                5
            ],
            "inverseBindMatrices": 8,
            "skeleton": 3
        }
    ],
    "animations": [
        {
            "name": "骨架|骨架Action",
            "channels": [
                {
                    "sampler": 0,
                    "target": {
                        "node": 5,
                        "path": "scale"
                    }
                }
            ],
            "samplers": [
                {
                    "input": 0,
                    "interpolation": "LINEAR",
                    "output": 1
                }
            ]
        }
    ],
    "nodes": [
        {
            "name": "RootNode",
            "translation": [
                0.0,
                0.0,
                0.0
            ],
            "rotation": [
                0.0,
                0.0,
                0.0,
                1.0
            ],
            "scale": [
                1.0,
                1.0,
                1.0
            ],
            "children": [
                1,
                2
            ]
        },
        {
            "name": "立方体.001",
            "translation": [
                0.0,
                0.0,
                0.0
            ],
            "rotation": [
                -0.707106828689575,
                0.0,
                0.0,
                0.707106709480286
            ],
            "scale": [
                100.0,
                100.0,
                100.0
            ],
            "mesh": 0,
            "skin": 0
        },
        {
            "name": "骨架",
            "translation": [
                0.0,
                0.0,
                0.0
            ],
            "rotation": [
                -0.707106828689575,
                0.0,
                0.0,
                0.707106709480286
            ],
            "scale": [
                100.0,
                100.0,
                100.0
            ],
            "children": [
                3,
                5
            ]
        },
        {
            "name": "Bone",
            "translation": [
                0.0,
                0.0,
                0.0
            ],
            "rotation": [
                -1.32348898008484e-23,
                1.46936793852786e-39,
                1.11022302462516e-16,
                1.0
            ],
            "scale": [
                1.0,
                1.0,
                1.0
            ],
            "children": [
                4
            ]
        },
        {
            "name": "Bone_end",
            "translation": [
                2.46519027371436e-34,
                0.00999999977648258,
                -2.64697790100512e-25
            ],
            "rotation": [
                -1.32348898008484e-23,
                2.93873587705572e-39,
                0.0,
                1.0
            ],
            "scale": [
                1.0,
                1.0,
                1.0
            ]
        },
        {
            "name": "Bone.001",
            "translation": [
                0.0,
                0.0,
                0.0
            ],
            "rotation": [
                -5.78515407017074e-31,
                1.32348898008484e-23,
                1.0,
                -4.37113882867379e-08
            ],
            "scale": [
                1.0,
                1.0,
                1.0
            ],
            "children": [
                6
            ]
        },
        {
            "name": "Bone.001_end",
            "translation": [
                -5.29395580201024e-25,
                0.0246379319578409,
                0.0
            ],
            "rotation": [
                0.0,
                -3.15544362088405e-30,
                1.32348898008484e-23,
                1.0
            ],
            "scale": [
                1.0,
                1.0,
                1.0
            ]
        }
    ]
}