{
    "asset": {
        "generator": "FBX2glTF v0.9.7",
        "version": "2.0"
    },
    "scene": 0,
    "buffers": [
        {
            "byteLength": 35188,
            "uri": "buffer.bin"
        }
    ],
    "bufferViews": [
        {
            "buffer": 0,
            "byteLength": 112,
            "byteOffset": 0
        },
        {
            "buffer": 0,
            "byteLength": 448,
            "byteOffset": 112
        },
        {
            "buffer": 0,
            "byteLength": 448,
            "byteOffset": 560
        },
        {
            "buffer": 0,
            "byteLength": 448,
            "byteOffset": 1008
        },
        {
            "buffer": 0,
            "byteLength": 448,
            "byteOffset": 1456
        },
        {
            "buffer": 0,
            "byteLength": 116,
            "byteOffset": 1904
        },
        {
            "buffer": 0,
            "byteLength": 348,
            "byteOffset": 2020
        },
        {
            "buffer": 0,
            "byteLength": 348,
            "byteOffset": 2368
        },
        {
            "buffer": 0,
            "byteLength": 464,
            "byteOffset": 2716
        },
        {
            "buffer": 0,
            "byteLength": 464,
            "byteOffset": 3180
        },
        {
            "buffer": 0,
            "byteLength": 464,
            "byteOffset": 3644
        },
        {
            "buffer": 0,
            "byteLength": 4224,
            "byteOffset": 4108,
            "target": 34963
        },
        {
            "buffer": 0,
            "byteLength": 5700,
            "byteOffset": 8332,
            "target": 34962
        },
        {
            "buffer": 0,
            "byteLength": 5700,
            "byteOffset": 14032,
            "target": 34962
        },
        {
            "buffer": 0,
            "byteLength": 3800,
            "byteOffset": 19732,
            "target": 34962
        },
        {
            "buffer": 0,
            "byteLength": 3800,
            "byteOffset": 23532,
            "target": 34962
        },
        {
            "buffer": 0,
            "byteLength": 7600,
            "byteOffset": 27332,
            "target": 34962
        },
        {
            "buffer": 0,
            "byteLength": 256,
            "byteOffset": 34932
        }
    ],
    "scenes": [
        {
            "name": "Root Scene",
            "nodes": [
                0
            ]
        }
    ],
    "accessors": [
        {
            "componentType": 5126,
            "type": "SCALAR",
            "count": 28,
            "bufferView": 0,
            "byteOffset": 0,
            "min": [
                0.0
            ],
            "max": [
                1.125
            ]
        },
        {
            "componentType": 5126,
            "type": "VEC4",
            "count": 28,
            "bufferView": 1,
            "byteOffset": 0
        },
        {
            "componentType": 5126,
            "type": "VEC4",
            "count": 28,
            "bufferView": 2,
            "byteOffset": 0
        },
        {
            "componentType": 5126,
            "type": "VEC4",
            "count": 28,
            "bufferView": 3,
            "byteOffset": 0
        },
        {
            "componentType": 5126,
            "type": "VEC4",
            "count": 28,
            "bufferView": 4,
            "byteOffset": 0
        },
        {
            "componentType": 5126,
            "type": "SCALAR",
            "count": 29,
            "bufferView": 5,
            "byteOffset": 0,
            "min": [
                0.0
            ],
            "max": [
                1.16666662693024
            ]
        },
        {
            "componentType": 5126,
            "type": "VEC3",
            "count": 29,
            "bufferView": 6,
            "byteOffset": 0
        },
        {
            "componentType": 5126,
            "type": "VEC3",
            "count": 29,
            "bufferView": 7,
            "byteOffset": 0
        },
        {
            "componentType": 5126,
            "type": "VEC4",
            "count": 29,
            "bufferView": 8,
            "byteOffset": 0
        },
        {
            "componentType": 5126,
            "type": "VEC4",
            "count": 29,
            "bufferView": 9,
            "byteOffset": 0
        },
        {
            "componentType": 5126,
            "type": "VEC4",
            "count": 29,
            "bufferView": 10,
            "byteOffset": 0
        },
        {
            "componentType": 5123,
            "type": "SCALAR",
            "count": 2112,
            "bufferView": 11,
            "byteOffset": 0
        },
        {
            "componentType": 5126,
            "type": "VEC3",
            "count": 475,
            "bufferView": 12,
            "byteOffset": 0,
            "min": [
                -0.0119081391021609,
                -0.0121154673397541,
                0.0
            ],
            "max": [
                0.0119081391021609,
                0.0130465906113386,
                0.0247931554913521
            ]
        },
        {
            "componentType": 5126,
            "type": "VEC3",
            "count": 475,
            "bufferView": 13,
            "byteOffset": 0
        },
        {
            "componentType": 5126,
            "type": "VEC2",
            "count": 475,
            "bufferView": 14,
            "byteOffset": 0
        },
        {
            "componentType": 5123,
            "type": "VEC4",
            "count": 475,
            "bufferView": 15,
            "byteOffset": 0
        },
        {
            "componentType": 5126,
            "type": "VEC4",
            "count": 475,
            "bufferView": 16,
            "byteOffset": 0
        },
        {
            "componentType": 5126,
            "type": "MAT4",
            "count": 4,
            "bufferView": 17,
            "byteOffset": 0
        }
    ],
    "images": [
        {
            "name": "colorTexture.png",
            "uri": "colorTexture.png"
        }
    ],
    "samplers": [
        {}
    ],
    "textures": [
        {
            "name": "base_color_texture",
            "sampler": 0,
            "source": 0
        }
    ],
    "materials": [
        {
            "name": "材质",
            "alphaMode": "OPAQUE",
            "extras": {
                "fromFBX": {
                    "shadingModel": "Phong",
                    "isTruePBR": false
                }
            },
            "pbrMetallicRoughness": {
                "baseColorTexture": {
                    "index": 0,
                    "texCoord": 0
                },
                "baseColorFactor": [
                    1.0,
                    1.0,
                    1.0,
                    1.0
                ],
                "metallicFactor": 0.400000005960464,
                "roughnessFactor": 0.156998574733734
            }
        }
    ],
    "meshes": [
        {
            "name": "立方体",
            "primitives": [
                {
                    "material": 0,
                    "mode": 4,
                    "attributes": {
                        "JOINTS_0": 15,
                        "NORMAL": 13,
                        "POSITION": 12,
                        "TEXCOORD_0": 14,
                        "WEIGHTS_0": 16
                    },
                    "indices": 11
                }
            ]
        }
    ],
    "skins": [
        {
            "joints": [
                3,
                4,
                5,
                6
            ],
            "inverseBindMatrices": 17,
            "skeleton": 3
        }
    ],
    "animations": [
        {
            "name": "骨架|AttackAnim",
            "channels": [
                {
                    "sampler": 0,
                    "target": {
                        "node": 3,
                        "path": "rotation"
                    }
                },
                {
                    "sampler": 1,
                    "target": {
                        "node": 4,
                        "path": "rotation"
                    }
                },
                {
                    "sampler": 2,
                    "target": {
                        "node": 5,
                        "path": "rotation"
                    }
                },
                {
                    "sampler": 3,
                    "target": {
                        "node": 6,
                        "path": "rotation"
                    }
                }
            ],
            "samplers": [
                {
                    "input": 0,
                    "interpolation": "LINEAR",
                    "output": 1
                },
                {
                    "input": 0,
                    "interpolation": "LINEAR",
                    "output": 2
                },
                {
                    "input": 0,
                    "interpolation": "LINEAR",
                    "output": 3
                },
                {
                    "input": 0,
                    "interpolation": "LINEAR",
                    "output": 4
                }
            ]
        },
        {
            "name": "骨架|MoveAnim",
            "channels": [
                {
                    "sampler": 0,
                    "target": {
                        "node": 3,
                        "path": "translation"
                    }
                },
                {
                    "sampler": 1,
                    "target": {
                        "node": 3,
                        "path": "scale"
                    }
                },
                {
                    "sampler": 2,
                    "target": {
                        "node": 4,
                        "path": "rotation"
                    }
                },
                {
                    "sampler": 3,
                    "target": {
                        "node": 5,
                        "path": "rotation"
                    }
                },
                {
                    "sampler": 4,
                    "target": {
                        "node": 6,
                        "path": "rotation"
                    }
                }
            ],
            "samplers": [
                {
                    "input": 5,
                    "interpolation": "LINEAR",
                    "output": 6
                },
                {
                    "input": 5,
                    "interpolation": "LINEAR",
                    "output": 7
                },
                {
                    "input": 5,
                    "interpolation": "LINEAR",
                    "output": 8
                },
                {
                    "input": 5,
                    "interpolation": "LINEAR",
                    "output": 9
                },
                {
                    "input": 5,
                    "interpolation": "LINEAR",
                    "output": 10
                }
            ]
        }
    ],
    "nodes": [
        {
            "name": "RootNode",
            "translation": [
                0.0,
                0.0,
                0.0
            ],
            "rotation": [
                0.0,
                0.0,
                0.0,
                1.0
            ],
            "scale": [
                1.0,
                1.0,
                1.0
            ],
            "children": [
                1,
                2
            ]
        },
        {
            "name": "立方体",
            "translation": [
                0.0,
                0.0,
                0.0
            ],
            "rotation": [
                -0.707106828689575,
                0.0,
                0.0,
                0.707106709480286
            ],
            "scale": [
                100.0,
                100.0,
                100.0
            ],
            "mesh": 0,
            "skin": 0
        },
        {
            "name": "骨架",
            "translation": [
                0.0,
                0.0,
                0.0
            ],
            "rotation": [
                -0.707106828689575,
                0.0,
                0.0,
                0.707106709480286
            ],
            "scale": [
                100.0,
                100.0,
                100.0
            ],
            "children": [
                3
            ]
        },
        {
            "name": "Bone",
            "translation": [
                0.0,
                0.0,
                0.0
            ],
            "rotation": [
                0.707106828689575,
                0.0,
                0.0,
                0.707106709480286
            ],
            "scale": [
                1.0,
                1.0,
                1.0
            ],
            "children": [
                4
            ]
        },
        {
            "name": "Bone.001",
            "translation": [
                0.0,
                0.0155907506123185,
                0.0
            ],
            "rotation": [
                0.166197776794434,
                -1.27929953592438e-16,
                -1.27929913887769e-16,
                0.986092448234558
            ],
            "scale": [
                1.0,
                1.0,
                1.0
            ],
            "children": [
                5
            ]
        },
        {
            "name": "Bone.002",
            "translation": [
                0.0,
                0.00616947980597615,
                -1.49011608607807e-10
            ],
            "rotation": [
                0.475855499505997,
                1.04847281079401e-07,
                5.67263391815231e-08,
                0.879523456096649
            ],
            "scale": [
                1.0,
                1.00000011920929,
                1.00000011920929
            ],
            "children": [
                6
            ]
        },
        {
            "name": "Bone.003",
            "translation": [
                4.87479827495008e-18,
                0.00441407086327672,
                1.49011603056692e-09
            ],
            "rotation": [
                0.147784918546677,
                1.41489169891429e-06,
                2.46655730506973e-07,
                0.989019513130188
            ],
            "scale": [
                1.0,
                1.0,
                1.0
            ],
            "children": [
                7
            ]
        },
        {
            "name": "Bone.003_end",
            "translation": [
                0.0,
                0.00230281637050211,
                0.0
            ],
            "rotation": [
                3.46944695195361e-18,
                3.31699425633764e-22,
                -2.64697796016969e-23,
                1.0
            ],
            "scale": [
                1.0,
                1.0,
                1.0
            ]
        }
    ]
}